<?xml version="1.0" encoding="UTF-8"?>
<svg width="9px" height="16px" viewBox="0 0 9 16" version="1.1" xmlns="http://www.w3.org/2000/svg" xmlns:xlink="http://www.w3.org/1999/xlink">
    <!-- Generator: Sketch 61 (89581) - https://sketch.com -->
    <title>facebook-dark</title>
    <desc>Created with Sketch.</desc>
    <g id="Page-1" stroke="none" stroke-width="1" fill="none" fill-rule="evenodd">
        <g id="Group" transform="translate(-84.000000, 0.000000)" fill="#333333" fill-rule="nonzero">
            <path d="M92.9163553,0.114551363 L92.8321171,3.00010185 C92.8321171,3.00010185 92.4634994,2.98508972 91.169478,3.00010185 C89.8981267,3.01517476 89.8830538,3.96306627 89.8830538,4.00822422 L89.8679809,6.40809882 L92.8321171,6.46073245 L92.4032686,9.53019674 L89.8830538,9.53019674 L89.8153473,16 L86.7609559,16 L86.6782372,9.54520887 L84,9.53019674 L84.075243,6.40809882 L86.7083222,6.40809882 C86.7083222,6.40809882 86.7083222,4.15165997 86.7083222,4.15117375 C86.7083222,3.26819299 86.9194038,2.31003002 87.4225837,1.57352391 C87.8664444,0.923869354 88.5375535,0.495203104 89.2859113,0.275795027 C89.2859113,0.275795027 90.855378,-0.216687977 92.9163553,0.114551363 Z" id="facebook-dark"></path>
        </g>
    </g>
</svg>