<svg width="15" height="15" viewBox="0 0 15 15" fill="none" xmlns="http://www.w3.org/2000/svg">
<path fill-rule="evenodd" clip-rule="evenodd" d="M7.50006 0C3.35844 0 0 3.35815 0 7.50097C0 10.8152 2.149 13.6269 5.129 14.6187C5.50383 14.6882 5.64144 14.456 5.64144 14.2579C5.64144 14.079 5.63449 13.4881 5.63126 12.8613C3.54473 13.3151 3.10445 11.9763 3.10445 11.9763C2.76328 11.1093 2.2717 10.8787 2.2717 10.8787C1.59122 10.4132 2.323 10.4228 2.323 10.4228C3.07613 10.4755 3.4727 11.1957 3.4727 11.1957C4.14163 12.3425 5.22724 12.011 5.65523 11.8193C5.72254 11.3346 5.91691 11.0035 6.1314 10.8163C4.46553 10.6266 2.71434 9.98341 2.71434 7.1092C2.71434 6.29025 3.00733 5.6211 3.4871 5.0958C3.40923 4.90674 3.15251 4.14394 3.55976 3.11072C3.55976 3.11072 4.18957 2.90911 5.62281 3.87961C6.22107 3.71341 6.86268 3.63006 7.50006 3.6272C8.13745 3.63006 8.77955 3.71341 9.37893 3.87961C10.8104 2.90911 11.4394 3.11072 11.4394 3.11072C11.8476 4.14394 11.5908 4.90674 11.5129 5.0958C11.9938 5.6211 12.2848 6.29025 12.2848 7.1092C12.2848 9.99024 10.5302 10.6246 8.86015 10.8103C9.12916 11.0431 9.36887 11.4996 9.36887 12.1994C9.36887 13.2029 9.36017 14.0107 9.36017 14.2579C9.36017 14.4575 9.49518 14.6914 9.87535 14.6177C12.8537 13.6248 15 10.814 15 7.50097C15 3.35815 11.6421 0 7.50006 0" fill="white"/>
<path fill-rule="evenodd" clip-rule="evenodd" d="M2.84051 10.7697C2.82399 10.8071 2.76537 10.8182 2.71197 10.7926C2.65757 10.7681 2.62701 10.7173 2.64465 10.6799C2.6608 10.6416 2.71954 10.631 2.77382 10.6565C2.82834 10.6811 2.85939 10.7324 2.84051 10.7697" fill="white"/>
<path fill-rule="evenodd" clip-rule="evenodd" d="M3.14445 11.1084C3.10868 11.1415 3.03876 11.1261 2.99132 11.0737C2.94226 11.0214 2.93307 10.9515 2.96933 10.9178C3.00622 10.8847 3.07403 10.9002 3.12322 10.9525C3.17227 11.0054 3.18184 11.0748 3.14445 11.1084" fill="white"/>
<path fill-rule="evenodd" clip-rule="evenodd" d="M3.44017 11.5408C3.39421 11.5727 3.31907 11.5427 3.27262 11.476C3.22667 11.4093 3.22667 11.3293 3.27362 11.2973C3.32019 11.2653 3.39421 11.2941 3.44128 11.3603C3.48711 11.428 3.48711 11.5081 3.44017 11.5408" fill="white"/>
<path fill-rule="evenodd" clip-rule="evenodd" d="M3.84522 11.9585C3.80411 12.0038 3.71655 11.9917 3.65246 11.9298C3.58688 11.8693 3.56863 11.7835 3.60986 11.7382C3.65147 11.6927 3.73952 11.7055 3.80411 11.7668C3.86919 11.8272 3.88906 11.9137 3.84522 11.9585" fill="white"/>
<path fill-rule="evenodd" clip-rule="evenodd" d="M4.40406 12.2C4.38593 12.2587 4.3016 12.2854 4.21664 12.2605C4.13182 12.2347 4.0763 12.1659 4.09344 12.1066C4.11108 12.0474 4.19578 12.0196 4.28135 12.0463C4.36605 12.0719 4.42169 12.1402 4.40406 12.2" fill="white"/>
<path fill-rule="evenodd" clip-rule="evenodd" d="M5.01809 12.2452C5.02021 12.3071 4.94817 12.3584 4.859 12.3594C4.76933 12.3615 4.69679 12.3114 4.6958 12.2506C4.6958 12.1881 4.76622 12.1373 4.85589 12.1358C4.94507 12.134 5.01809 12.1837 5.01809 12.2452" fill="white"/>
<path fill-rule="evenodd" clip-rule="evenodd" d="M5.5893 12.1483C5.59999 12.2086 5.53801 12.2706 5.44946 12.287C5.36239 12.303 5.28179 12.2658 5.27074 12.2059C5.25993 12.144 5.32302 12.0821 5.40996 12.066C5.49864 12.0506 5.578 12.0869 5.5893 12.1483" fill="white"/>
</svg>
