<?xml version="1.0" encoding="UTF-8"?>
<svg width="230px" height="224px" viewBox="0 0 230 224" version="1.1" xmlns="http://www.w3.org/2000/svg" xmlns:xlink="http://www.w3.org/1999/xlink">
    <title>github</title>
    <g id="Page-1" stroke="none" stroke-width="1" fill="none" fill-rule="evenodd">
        <g id="github" fill="#333333" fill-rule="nonzero">
            <path d="M94.2909219,165.210166 C89.9336211,169.055977 87.7874879,173.686954 87.0721102,179.083091 C86.9232036,179.782755 86.4753302,180.382167 85.846463,180.723437 C80.4786286,183.038925 74.8956806,184.224175 69.04259,183.258972 C62.0388918,182.103728 57.1663189,177.952853 53.5944328,172.05661 C50.4927951,166.920527 46.4406554,162.754649 40.6525991,160.874252 C38.1512784,160.05908 35.2997727,160.139097 32.6033489,160.089087 C31.8179342,160.089087 30.52225,160.894257 30.3471575,161.564398 C30.1720651,162.234539 30.9174587,163.344773 31.4927624,164.064925 C32.0934908,164.75686 32.8115148,165.33753 33.6138825,165.780287 C40.1823508,169.726119 44.4195882,175.61236 47.2710939,182.518816 C52.1986959,194.44633 61.603662,199.522401 73.9251681,199.977496 C78.127387,200.127528 82.3596218,199.477391 86.7269279,199.147321 C86.7269279,206.058779 86.8269807,213.115266 86.6668962,220.15175 C86.6168698,222.247192 85.0310324,223.702498 82.9249203,223.902541 C81.2390301,224.067575 79.3480316,224.077577 77.7972127,223.492454 C36.1652297,207.794144 9.90136149,178.482965 1.87712443,134.603714 C-9.10867643,74.5160455 29.181542,17.0339265 89.1031826,3.09598799 C147.784168,-10.5518894 204.664203,22.2050167 223.504151,76.1113818 C239.672688,122.431147 225.004943,173.181847 186.774756,204.093364 C176.456454,212.438393 164.719928,218.85874 152.126461,223.04736 C146.963735,224.772724 143.787057,222.52225 143.767047,217.046095 C143.732028,207.304041 143.767047,197.566988 143.767047,187.824934 C143.767047,179.548189 142.171204,171.791554 136.158029,165.060135 C139.204638,164.560029 141.931077,164.104933 144.66252,163.609829 C152.326567,162.209534 159.70046,159.939055 166.398997,155.863196 C179.255786,148.031545 185.22894,135.908989 187.320044,121.525957 C188.625734,112.524059 188.985924,103.477151 186.45959,94.5502693 C184.803716,88.6940346 182.152316,83.3879159 177.955099,78.9219744 C177.029611,77.9217635 176.899542,77.136598 177.354782,75.8613291 C180.686542,66.469349 179.555945,57.1873921 176.279214,48.0504657 C176.039088,47.3753234 174.668364,46.7201853 173.812912,46.7051821 C167.309478,46.605161 161.451385,49.0756819 155.768384,51.8862744 C152.496656,53.506616 149.445045,55.5720515 146.188325,57.2424037 C145.06409,57.8473674 143.773501,58.0702964 142.511384,57.8775376 C132.56113,55.5970568 122.500818,54.0267257 112.300432,54.7318744 C104.356237,55.2769893 96.4570657,56.6122708 88.5779053,57.8675355 C86.8996214,58.2241143 85.1485052,57.8750872 83.7353482,56.902332 C76.7316501,52.3763778 69.4127855,48.4605522 61.0333608,46.970238 C54.9751619,45.8900102 54.5299268,46.0750493 52.9340842,51.9712924 C50.7579351,60.0930047 50.3927423,68.1947127 53.2392453,76.2764166 C53.446816,77.0876569 53.2916469,77.9490283 52.8140208,78.6369143 C44.4295935,88.9690926 41.5230588,100.806588 42.5235871,113.879344 C43.0738777,121.225893 44.199472,128.412408 47.0259645,135.24885 C53.104174,149.996959 64.7203077,158.128673 79.663198,162.099511 C84.3506731,163.354775 89.1882275,164.139941 94.2909219,165.210166 Z" id="Path"></path>
        </g>
    </g>
</svg>