<svg width="15" height="15" viewBox="0 0 15 15" fill="none" xmlns="http://www.w3.org/2000/svg">
<path fill-rule="evenodd" clip-rule="evenodd" d="M7.50006 0C3.35844 0 0 3.35815 0 7.50097C0 10.8152 2.149 13.6269 5.129 14.6187C5.50383 14.6882 5.64144 14.456 5.64144 14.2579C5.64144 14.079 5.63449 13.4881 5.63126 12.8613C3.54473 13.3151 3.10445 11.9763 3.10445 11.9763C2.76328 11.1093 2.2717 10.8787 2.2717 10.8787C1.59122 10.4132 2.323 10.4228 2.323 10.4228C3.07613 10.4755 3.4727 11.1957 3.4727 11.1957C4.14163 12.3425 5.22724 12.011 5.65523 11.8193C5.72254 11.3346 5.91691 11.0035 6.1314 10.8163C4.46553 10.6266 2.71434 9.98341 2.71434 7.1092C2.71434 6.29025 3.00733 5.6211 3.4871 5.0958C3.40923 4.90674 3.15251 4.14394 3.55976 3.11072C3.55976 3.11072 4.18957 2.90912 5.62281 3.87961C6.22107 3.71341 6.86268 3.63006 7.50006 3.6272C8.13745 3.63006 8.77955 3.71341 9.37893 3.87961C10.8104 2.90912 11.4394 3.11072 11.4394 3.11072C11.8476 4.14394 11.5908 4.90674 11.5129 5.0958C11.9938 5.6211 12.2848 6.29025 12.2848 7.1092C12.2848 9.99024 10.5302 10.6246 8.86015 10.8103C9.12916 11.0431 9.36887 11.4996 9.36887 12.1994C9.36887 13.2029 9.36017 14.0107 9.36017 14.2579C9.36017 14.4575 9.49518 14.6914 9.87535 14.6177C12.8537 13.6248 15 10.814 15 7.50097C15 3.35815 11.6421 0 7.50006 0Z" fill="#D3D3D3"/>
<path fill-rule="evenodd" clip-rule="evenodd" d="M2.84051 10.7698C2.82399 10.8072 2.76537 10.8183 2.71197 10.7927C2.65757 10.7682 2.62701 10.7174 2.64465 10.68C2.6608 10.6416 2.71954 10.6311 2.77382 10.6565C2.82834 10.6811 2.85939 10.7324 2.84051 10.7698Z" fill="white"/>
<path fill-rule="evenodd" clip-rule="evenodd" d="M3.14445 11.1087C3.10868 11.1419 3.03876 11.1264 2.99132 11.074C2.94226 11.0217 2.93307 10.9518 2.96933 10.9181C3.00622 10.885 3.07403 10.9005 3.12322 10.9528C3.17227 11.0057 3.18184 11.0751 3.14445 11.1087Z" fill="white"/>
<path fill-rule="evenodd" clip-rule="evenodd" d="M3.44017 11.5407C3.39421 11.5726 3.31907 11.5427 3.27262 11.476C3.22667 11.4093 3.22667 11.3293 3.27362 11.2972C3.32019 11.2652 3.39421 11.294 3.44128 11.3602C3.48711 11.4279 3.48711 11.508 3.44017 11.5407Z" fill="white"/>
<path fill-rule="evenodd" clip-rule="evenodd" d="M3.84546 11.9581C3.80435 12.0034 3.71679 11.9912 3.6527 11.9294C3.58713 11.8689 3.56887 11.783 3.61011 11.7377C3.65171 11.6922 3.73977 11.705 3.80435 11.7664C3.86943 11.8268 3.8893 11.9132 3.84546 11.9581Z" fill="white"/>
<path fill-rule="evenodd" clip-rule="evenodd" d="M4.4043 12.2004C4.38617 12.2591 4.30184 12.2859 4.21689 12.2609C4.13206 12.2352 4.07654 12.1664 4.09368 12.107C4.11132 12.0479 4.19602 12.02 4.2816 12.0467C4.3663 12.0723 4.42194 12.1406 4.4043 12.2004Z" fill="white"/>
<path fill-rule="evenodd" clip-rule="evenodd" d="M5.01785 12.2454C5.01996 12.3072 4.94793 12.3585 4.85875 12.3595C4.76908 12.3616 4.69655 12.3116 4.69556 12.2507C4.69556 12.1882 4.76598 12.1374 4.85565 12.1359C4.94482 12.1342 5.01785 12.1839 5.01785 12.2454Z" fill="white"/>
<path fill-rule="evenodd" clip-rule="evenodd" d="M5.5893 12.1481C5.59999 12.2085 5.53801 12.2704 5.44946 12.2868C5.36239 12.3029 5.28179 12.2656 5.27074 12.2057C5.25993 12.1439 5.32302 12.0819 5.40996 12.0659C5.49864 12.0505 5.578 12.0867 5.5893 12.1481Z" fill="white"/>
</svg>
