<svg width="191" height="119" viewBox="0 0 191 119" fill="none" xmlns="http://www.w3.org/2000/svg">
<path d="M0.546087 107.931C1.11493 108.295 1.78616 108.602 2.55978 108.853C3.35616 109.103 4.25493 109.228 5.25609 109.228C6.55305 109.228 7.58834 109.012 8.36196 108.58C9.15834 108.125 9.74993 107.453 10.1367 106.566C10.5463 105.679 10.8194 104.598 10.9559 103.324C11.0924 102.027 11.1607 100.536 11.1607 98.8525V86.2242H12.9013V98.5453C12.9013 100.366 12.8103 102.027 12.6283 103.528C12.469 105.03 12.1391 106.338 11.6385 107.453C11.1379 108.546 10.3757 109.387 9.35174 109.979C8.35058 110.548 7.00812 110.832 5.32435 110.832C4.23218 110.832 3.25377 110.707 2.38913 110.457C1.52449 110.207 0.728116 109.831 0 109.331L0.546087 107.931Z" fill="#2D2D2D"/>
<path d="M25.5885 110.798C24.3371 110.798 23.1766 110.559 22.1072 110.081C21.0605 109.604 20.1504 108.944 19.3768 108.102C18.6031 107.237 18.0002 106.247 17.5678 105.133C17.1355 104.018 16.9194 102.846 16.9194 101.617C16.9194 100.366 17.1355 99.1938 17.5678 98.1016C18.0002 96.9867 18.6031 96.0083 19.3768 95.1664C20.1731 94.3018 21.0947 93.6305 22.1413 93.1527C23.2107 92.6521 24.3598 92.4018 25.5885 92.4018C26.8172 92.4018 27.9549 92.6521 29.0015 93.1527C30.0482 93.6305 30.9697 94.3018 31.7661 95.1664C32.5625 96.0083 33.1768 96.9867 33.6092 98.1016C34.0415 99.1938 34.2576 100.366 34.2576 101.617C34.2576 102.846 34.0415 104.018 33.6092 105.133C33.1768 106.247 32.5625 107.237 31.7661 108.102C30.9925 108.944 30.071 109.604 29.0015 110.081C27.9549 110.559 26.8172 110.798 25.5885 110.798ZM18.6259 101.685C18.6259 103.073 18.9331 104.348 19.5474 105.508C20.1845 106.646 21.0264 107.556 22.0731 108.238C23.1197 108.921 24.2802 109.262 25.5544 109.262C26.8286 109.262 27.989 108.921 29.0357 108.238C30.1051 107.533 30.947 106.6 31.5613 105.44C32.1984 104.256 32.517 102.971 32.517 101.583C32.517 100.195 32.1984 98.9208 31.5613 97.7603C30.947 96.5999 30.1051 95.6784 29.0357 94.9958C27.989 94.2904 26.84 93.9377 25.5885 93.9377C24.3143 93.9377 23.1539 94.2904 22.1072 94.9958C21.0605 95.7011 20.2186 96.634 19.5815 97.7945C18.9444 98.9549 18.6259 100.252 18.6259 101.685Z" fill="#2D2D2D"/>
<path d="M43.9438 110.798C42.533 110.798 41.2247 110.559 40.0187 110.081C38.8128 109.604 37.7548 108.875 36.8446 107.897L37.6296 106.703C38.608 107.635 39.5978 108.318 40.599 108.75C41.6001 109.16 42.6923 109.365 43.8755 109.365C45.4 109.365 46.6287 109.046 47.5616 108.409C48.5172 107.772 48.9951 106.885 48.9951 105.747C48.9951 104.973 48.7675 104.382 48.3124 103.972C47.8801 103.54 47.243 103.198 46.4011 102.948C45.582 102.675 44.5809 102.391 43.3977 102.095C42.1917 101.776 41.1678 101.446 40.3259 101.105C39.5068 100.764 38.8924 100.32 38.4829 99.774C38.0733 99.2279 37.8685 98.4884 37.8685 97.5555C37.8685 96.3951 38.153 95.4395 38.7218 94.6886C39.3134 93.915 40.0984 93.3461 41.0768 92.9821C42.078 92.5953 43.1815 92.4018 44.3874 92.4018C45.7754 92.4018 46.9814 92.6294 48.0053 93.0845C49.0519 93.5395 49.8483 94.1425 50.3944 94.8934L49.4729 95.9855C48.904 95.2574 48.1645 94.7227 47.2544 94.3814C46.3443 94.0174 45.3431 93.8353 44.2509 93.8353C43.4318 93.8353 42.6582 93.9491 41.9301 94.1766C41.2019 94.4042 40.6103 94.7796 40.1553 95.3029C39.723 95.8035 39.5068 96.4861 39.5068 97.3508C39.5068 98.0334 39.6661 98.5681 39.9846 98.9549C40.3259 99.3417 40.8265 99.6603 41.4864 99.9105C42.1462 100.138 42.9653 100.388 43.9438 100.661C45.3317 101.003 46.5263 101.355 47.5274 101.719C48.5286 102.084 49.3022 102.561 49.8483 103.153C50.3944 103.722 50.6674 104.53 50.6674 105.576C50.6674 107.192 50.0531 108.466 48.8244 109.399C47.5957 110.332 45.9688 110.798 43.9438 110.798Z" fill="#2D2D2D"/>
<path d="M69.1837 110.457H67.4772V100.559C67.4772 98.3747 67.1018 96.7364 66.3509 95.6442C65.6001 94.5293 64.5079 93.9718 63.0744 93.9718C62.1415 93.9718 61.2086 94.2108 60.2757 94.6886C59.3428 95.1664 58.5351 95.8263 57.8524 96.6682C57.1698 97.4873 56.6806 98.4202 56.3848 99.4668V110.457H54.6783V85.5416H56.3848V96.9412C57.1129 95.5532 58.1255 94.4497 59.4224 93.6305C60.7194 92.8114 62.096 92.4018 63.5522 92.4018C64.5534 92.4018 65.4066 92.5839 66.112 92.9479C66.8174 93.312 67.3976 93.8353 67.8527 94.5179C68.3077 95.2005 68.6377 96.0197 68.8424 96.9753C69.07 97.931 69.1837 99.0232 69.1837 100.252V110.457Z" fill="#2D2D2D"/>
<path d="M91.7381 86.3949H93.4446L97.0625 95.2005L100.68 86.3949H102.387L98.1205 96.5999L103.206 108.409L112.489 86.2242H114.401L104.025 110.457H102.421L97.0966 97.9992L91.7381 110.457H90.134L79.7925 86.2242H81.6696L90.9872 108.409L96.0044 96.5999L91.7381 86.3949Z" fill="#2D2D2D"/>
<path d="M122.714 110.798C121.462 110.798 120.302 110.559 119.232 110.081C118.186 109.604 117.276 108.944 116.502 108.102C115.728 107.237 115.125 106.247 114.693 105.133C114.261 104.018 114.044 102.846 114.044 101.617C114.044 100.366 114.261 99.1938 114.693 98.1016C115.125 96.9867 115.728 96.0083 116.502 95.1664C117.298 94.3018 118.22 93.6305 119.266 93.1527C120.336 92.6521 121.485 92.4018 122.714 92.4018C123.942 92.4018 125.08 92.6521 126.127 93.1527C127.173 93.6305 128.095 94.3018 128.891 95.1664C129.688 96.0083 130.302 96.9867 130.734 98.1016C131.167 99.1938 131.383 100.366 131.383 101.617C131.383 102.846 131.167 104.018 130.734 105.133C130.302 106.247 129.688 107.237 128.891 108.102C128.118 108.944 127.196 109.604 126.127 110.081C125.08 110.559 123.942 110.798 122.714 110.798ZM115.751 101.685C115.751 103.073 116.058 104.348 116.673 105.508C117.31 106.646 118.152 107.556 119.198 108.238C120.245 108.921 121.405 109.262 122.68 109.262C123.954 109.262 125.114 108.921 126.161 108.238C127.23 107.533 128.072 106.6 128.686 105.44C129.324 104.256 129.642 102.971 129.642 101.583C129.642 100.195 129.324 98.9208 128.686 97.7603C128.072 96.5999 127.23 95.6784 126.161 94.9958C125.114 94.2904 123.965 93.9377 122.714 93.9377C121.439 93.9377 120.279 94.2904 119.232 94.9958C118.186 95.7011 117.344 96.634 116.707 97.7945C116.07 98.9549 115.751 100.252 115.751 101.685Z" fill="#2D2D2D"/>
<path d="M143.868 94.2449C142.275 94.2904 140.875 94.7682 139.67 95.6784C138.486 96.5658 137.656 97.7945 137.178 99.3645V110.457H135.471V92.709H137.11V97.0777C137.724 95.8263 138.543 94.8137 139.567 94.0401C140.591 93.2437 141.672 92.7887 142.81 92.6749C143.037 92.6521 143.242 92.6408 143.424 92.6408C143.606 92.6408 143.754 92.6408 143.868 92.6408V94.2449Z" fill="#2D2D2D"/>
<path d="M147.24 85.5416H148.981V106.941C148.981 107.761 149.152 108.329 149.493 108.648C149.834 108.944 150.278 109.092 150.824 109.092C151.188 109.092 151.564 109.058 151.95 108.989C152.337 108.921 152.678 108.83 152.974 108.716L153.316 110.116C152.929 110.252 152.451 110.377 151.882 110.491C151.313 110.605 150.824 110.662 150.414 110.662C149.459 110.662 148.685 110.377 148.094 109.808C147.525 109.217 147.24 108.432 147.24 107.453V85.5416Z" fill="#2D2D2D"/>
<path d="M163.479 110.798C162.228 110.798 161.067 110.559 159.998 110.081C158.929 109.581 157.996 108.91 157.199 108.068C156.426 107.203 155.811 106.213 155.356 105.098C154.924 103.961 154.708 102.766 154.708 101.515C154.708 99.8309 155.083 98.3064 155.834 96.9412C156.585 95.576 157.62 94.4838 158.94 93.6647C160.26 92.8228 161.739 92.4018 163.377 92.4018C165.061 92.4018 166.551 92.8228 167.848 93.6647C169.145 94.5066 170.169 95.6215 170.92 97.0095C171.693 98.3747 172.08 99.8764 172.08 101.515C172.08 101.651 172.08 101.788 172.08 101.924C172.08 102.061 172.069 102.175 172.046 102.266H156.483C156.574 103.608 156.949 104.825 157.609 105.918C158.269 107.01 159.111 107.874 160.134 108.511C161.181 109.126 162.319 109.433 163.548 109.433C164.776 109.433 165.937 109.114 167.029 108.477C168.121 107.84 168.883 107.021 169.316 106.02L170.817 106.429C170.476 107.271 169.93 108.022 169.179 108.682C168.451 109.342 167.586 109.865 166.585 110.252C165.607 110.616 164.571 110.798 163.479 110.798ZM156.414 100.934H170.442C170.351 99.5465 169.987 98.3178 169.35 97.2484C168.713 96.1789 167.871 95.3371 166.824 94.7227C165.8 94.1084 164.662 93.8012 163.411 93.8012C162.16 93.8012 161.022 94.1084 159.998 94.7227C158.974 95.3371 158.144 96.1789 157.506 97.2484C156.869 98.3178 156.505 99.5465 156.414 100.934Z" fill="#2D2D2D"/>
<path d="M176.563 116.464C176.927 116.487 177.245 116.487 177.518 116.464C177.814 116.464 178.03 116.418 178.167 116.327C178.372 116.259 178.576 116.077 178.781 115.781C179.009 115.508 179.304 114.951 179.669 114.109C180.033 113.29 180.545 112.072 181.204 110.457L173.286 92.709H175.095L182.126 108.648L188.645 92.709H190.386L180.658 116.054C180.522 116.418 180.328 116.737 180.078 117.01C179.851 117.306 179.566 117.533 179.225 117.693C178.884 117.875 178.474 117.977 177.996 118C177.791 118.022 177.575 118.034 177.348 118.034C177.12 118.057 176.858 118.057 176.563 118.034V116.464Z" fill="#2D2D2D"/>
<path fill-rule="evenodd" clip-rule="evenodd" d="M76.093 20.4C76.093 18.7723 76.2987 17.1926 76.6855 15.6855C78.1926 15.2987 79.7723 15.093 81.4 15.093C86.2023 15.093 90.5865 16.8834 93.9214 19.8332C91.7057 22.1284 90.0234 24.9419 89.074 28.074C85.9419 29.0234 83.1284 30.7057 80.8332 32.9214C77.8834 29.5865 76.093 25.2023 76.093 20.4ZM88.6346 29.7912C86.0793 30.7047 83.7781 32.1524 81.8655 34C83.7781 35.8476 86.0793 37.2954 88.6347 38.2088C88.3498 36.8506 88.2 35.4428 88.2 34C88.2 32.5572 88.3498 31.1494 88.6346 29.7912ZM90.2855 38.7145C89.8987 37.2074 89.693 35.6277 89.693 34C89.693 32.3723 89.8987 30.7926 90.2855 29.2855C91.7926 28.8987 93.3723 28.693 95 28.693C96.6277 28.693 98.2074 28.8987 99.7145 29.2855C100.101 30.7926 100.307 32.3723 100.307 34C100.307 35.6277 100.101 37.2074 99.7145 38.7145C98.2074 39.1013 96.6277 39.307 95 39.307C93.3723 39.307 91.7926 39.1013 90.2855 38.7145ZM89.074 39.926C85.9419 38.9766 83.1284 37.2943 80.8332 35.0786C77.8834 38.4135 76.093 42.7977 76.093 47.6C76.093 49.2277 76.2987 50.8074 76.6855 52.3145C78.1926 52.7013 79.7723 52.907 81.4 52.907C86.2023 52.907 90.5865 51.1166 93.9214 48.1668C91.7057 45.8716 90.0234 43.0581 89.074 39.926ZM95 47.1345C93.1524 45.2219 91.7047 42.9207 90.7912 40.3654C92.1494 40.6502 93.5572 40.8 95 40.8C96.4428 40.8 97.8506 40.6502 99.2088 40.3654C98.2953 42.9207 96.8476 45.2219 95 47.1345ZM95 49.2055C91.3909 52.4358 86.6248 54.4 81.4 54.4C79.9572 54.4 78.5494 54.2502 77.1912 53.9653C79.8045 61.2759 86.7913 66.507 95 66.507C103.209 66.507 110.196 61.2759 112.809 53.9654C111.451 54.2502 110.043 54.4 108.6 54.4C103.375 54.4 98.6091 52.4358 95 49.2055ZM113.315 52.3145C111.807 52.7013 110.228 52.907 108.6 52.907C103.798 52.907 99.4135 51.1166 96.0786 48.1668C98.2943 45.8716 99.9766 43.0581 100.926 39.926C104.058 38.9766 106.872 37.2943 109.167 35.0786C112.117 38.4135 113.907 42.7977 113.907 47.6C113.907 49.2277 113.701 50.8074 113.315 52.3145ZM114.526 53.526C111.987 61.9025 104.206 68 95 68C85.7944 68 78.0129 61.9025 75.474 53.526C67.0975 50.9871 61 43.2056 61 34C61 24.7944 67.0975 17.0129 75.474 14.474C78.0129 6.0975 85.7944 0 95 0C104.206 0 111.987 6.0975 114.526 14.474C122.902 17.0129 129 24.7944 129 34C129 43.2056 122.902 50.9871 114.526 53.526ZM114.965 16.1912C122.276 18.8045 127.507 25.7913 127.507 34C127.507 42.2087 122.276 49.1955 114.965 51.8088C115.25 50.4506 115.4 49.0428 115.4 47.6C115.4 42.3752 113.436 37.6091 110.206 34C113.436 30.3909 115.4 25.6248 115.4 20.4C115.4 18.9572 115.25 17.5494 114.965 16.1912ZM112.809 14.0347C110.196 6.72414 103.209 1.49297 95 1.49297C86.7913 1.49297 79.8045 6.72414 77.1912 14.0347C78.5494 13.7498 79.9572 13.6 81.4 13.6C86.6248 13.6 91.3909 15.5642 95 18.7945C98.6091 15.5642 103.375 13.6 108.6 13.6C110.043 13.6 111.451 13.7498 112.809 14.0347ZM96.0786 19.8332C99.4135 16.8834 103.798 15.093 108.6 15.093C110.228 15.093 111.807 15.2987 113.315 15.6855C113.701 17.1926 113.907 18.7723 113.907 20.4C113.907 25.2023 112.117 29.5865 109.167 32.9214C106.872 30.7057 104.058 29.0234 100.926 28.074C99.9766 24.9419 98.2943 22.1284 96.0786 19.8332ZM95 20.8655C96.8476 22.7781 98.2954 25.0793 99.2088 27.6347C97.8506 27.3498 96.4428 27.2 95 27.2C93.5572 27.2 92.1494 27.3498 90.7912 27.6346C91.7046 25.0793 93.1524 22.7781 95 20.8655ZM74.6 20.4C74.6 18.9572 74.7498 17.5494 75.0347 16.1912C67.7241 18.8045 62.493 25.7913 62.493 34C62.493 42.2087 67.7241 49.1955 75.0346 51.8088C74.7498 50.4506 74.6 49.0428 74.6 47.6C74.6 42.3752 76.5642 37.6091 79.7945 34C76.5642 30.3909 74.6 25.6248 74.6 20.4ZM101.8 34C101.8 35.4428 101.65 36.8506 101.365 38.2088C103.921 37.2953 106.222 35.8476 108.135 34C106.222 32.1525 103.921 30.7047 101.365 29.7912C101.65 31.1494 101.8 32.5572 101.8 34Z" fill="#2D2D2D"/>
</svg>
