<svg width="270" height="68" viewBox="0 0 270 68" fill="none" xmlns="http://www.w3.org/2000/svg">
<path d="M79.5461 44.9312C80.1149 45.2953 80.7862 45.6024 81.5598 45.8527C82.3562 46.103 83.2549 46.2282 84.2561 46.2282C85.553 46.2282 86.5883 46.012 87.362 45.5797C88.1583 45.1246 88.7499 44.4534 89.1367 43.566C89.5463 42.6786 89.8194 41.5978 89.9559 40.3236C90.0924 39.0266 90.1607 37.5363 90.1607 35.8525V23.2242H91.9013V35.5453C91.9013 37.3656 91.8103 39.0266 91.6283 40.5284C91.469 42.0301 91.1391 43.3384 90.6385 44.4534C90.1379 45.5455 89.3757 46.3874 88.3517 46.979C87.3506 47.5479 86.0081 47.8323 84.3244 47.8323C83.2322 47.8323 82.2538 47.7071 81.3891 47.4569C80.5245 47.2066 79.7281 46.8311 79 46.3305L79.5461 44.9312Z" fill="#2D2D2D"/>
<path d="M104.589 47.7982C103.337 47.7982 102.177 47.5592 101.107 47.0814C100.061 46.6036 99.1504 45.9437 98.3768 45.1019C97.6031 44.2372 97.0002 43.2474 96.5678 42.1325C96.1355 41.0176 95.9194 39.8458 95.9194 38.6171C95.9194 37.3656 96.1355 36.1938 96.5678 35.1016C97.0002 33.9867 97.6031 33.0083 98.3768 32.1664C99.1731 31.3018 100.095 30.6305 101.141 30.1527C102.211 29.6521 103.36 29.4018 104.589 29.4018C105.817 29.4018 106.955 29.6521 108.002 30.1527C109.048 30.6305 109.97 31.3018 110.766 32.1664C111.562 33.0083 112.177 33.9867 112.609 35.1016C113.041 36.1938 113.258 37.3656 113.258 38.6171C113.258 39.8458 113.041 41.0176 112.609 42.1325C112.177 43.2474 111.562 44.2372 110.766 45.1019C109.992 45.9437 109.071 46.6036 108.002 47.0814C106.955 47.5592 105.817 47.7982 104.589 47.7982ZM97.6259 38.6853C97.6259 40.0733 97.9331 41.3475 98.5474 42.5079C99.1845 43.6456 100.026 44.5558 101.073 45.2384C102.12 45.921 103.28 46.2623 104.554 46.2623C105.829 46.2623 106.989 45.921 108.036 45.2384C109.105 44.533 109.947 43.6001 110.561 42.4397C111.198 41.2565 111.517 39.9709 111.517 38.5829C111.517 37.195 111.198 35.9208 110.561 34.7603C109.947 33.5999 109.105 32.6784 108.036 31.9958C106.989 31.2904 105.84 30.9377 104.589 30.9377C103.314 30.9377 102.154 31.2904 101.107 31.9958C100.061 32.7011 99.2186 33.634 98.5815 34.7945C97.9444 35.9549 97.6259 37.2518 97.6259 38.6853Z" fill="#2D2D2D"/>
<path d="M122.944 47.7982C121.533 47.7982 120.225 47.5592 119.019 47.0814C117.813 46.6036 116.755 45.8755 115.845 44.8971L116.63 43.7025C117.608 44.6354 118.598 45.318 119.599 45.7503C120.6 46.1599 121.692 46.3647 122.875 46.3647C124.4 46.3647 125.629 46.0461 126.562 45.409C127.517 44.7719 127.995 43.8845 127.995 42.7469C127.995 41.9732 127.768 41.3816 127.312 40.9721C126.88 40.5397 126.243 40.1984 125.401 39.9482C124.582 39.6751 123.581 39.3907 122.398 39.0949C121.192 38.7763 120.168 38.4464 119.326 38.1051C118.507 37.7638 117.892 37.3201 117.483 36.774C117.073 36.2279 116.869 35.4884 116.869 34.5555C116.869 33.3951 117.153 32.4395 117.722 31.6886C118.313 30.915 119.098 30.3461 120.077 29.9821C121.078 29.5953 122.182 29.4018 123.387 29.4018C124.775 29.4018 125.981 29.6294 127.005 30.0845C128.052 30.5395 128.848 31.1425 129.394 31.8934L128.473 32.9855C127.904 32.2574 127.165 31.7227 126.254 31.3814C125.344 31.0174 124.343 30.8353 123.251 30.8353C122.432 30.8353 121.658 30.9491 120.93 31.1766C120.202 31.4042 119.61 31.7796 119.155 32.3029C118.723 32.8035 118.507 33.4861 118.507 34.3508C118.507 35.0334 118.666 35.5681 118.985 35.9549C119.326 36.3417 119.827 36.6603 120.486 36.9105C121.146 37.1381 121.965 37.3884 122.944 37.6614C124.332 38.0027 125.526 38.3554 126.527 38.7195C127.529 39.0835 128.302 39.5613 128.848 40.1529C129.394 40.7218 129.667 41.5295 129.667 42.5762C129.667 44.1917 129.053 45.4659 127.824 46.3988C126.596 47.3317 124.969 47.7982 122.944 47.7982Z" fill="#2D2D2D"/>
<path d="M148.184 47.4569H146.477V37.559C146.477 35.3747 146.102 33.7364 145.351 32.6442C144.6 31.5293 143.508 30.9718 142.074 30.9718C141.141 30.9718 140.209 31.2108 139.276 31.6886C138.343 32.1664 137.535 32.8263 136.852 33.6682C136.17 34.4873 135.681 35.4202 135.385 36.4668V47.4569H133.678V22.5416H135.385V33.9412C136.113 32.5532 137.125 31.4497 138.422 30.6305C139.719 29.8114 141.096 29.4018 142.552 29.4018C143.553 29.4018 144.407 29.5839 145.112 29.9479C145.817 30.312 146.398 30.8353 146.853 31.5179C147.308 32.2005 147.638 33.0197 147.842 33.9753C148.07 34.931 148.184 36.0232 148.184 37.2518V47.4569Z" fill="#2D2D2D"/>
<path d="M170.738 23.3949H172.445L176.062 32.2005L179.68 23.3949H181.387L177.121 33.5999L182.206 45.409L191.489 23.2242H193.401L183.025 47.4569H181.421L176.097 34.9992L170.738 47.4569H169.134L158.792 23.2242H160.67L169.987 45.409L175.004 33.5999L170.738 23.3949Z" fill="#2D2D2D"/>
<path d="M201.714 47.7982C200.462 47.7982 199.302 47.5592 198.232 47.0814C197.186 46.6036 196.276 45.9437 195.502 45.1019C194.728 44.2372 194.125 43.2474 193.693 42.1325C193.261 41.0176 193.044 39.8458 193.044 38.6171C193.044 37.3656 193.261 36.1938 193.693 35.1016C194.125 33.9867 194.728 33.0083 195.502 32.1664C196.298 31.3018 197.22 30.6305 198.266 30.1527C199.336 29.6521 200.485 29.4018 201.714 29.4018C202.942 29.4018 204.08 29.6521 205.127 30.1527C206.173 30.6305 207.095 31.3018 207.891 32.1664C208.688 33.0083 209.302 33.9867 209.734 35.1016C210.167 36.1938 210.383 37.3656 210.383 38.6171C210.383 39.8458 210.167 41.0176 209.734 42.1325C209.302 43.2474 208.688 44.2372 207.891 45.1019C207.118 45.9437 206.196 46.6036 205.127 47.0814C204.08 47.5592 202.942 47.7982 201.714 47.7982ZM194.751 38.6853C194.751 40.0733 195.058 41.3475 195.673 42.5079C196.31 43.6456 197.152 44.5558 198.198 45.2384C199.245 45.921 200.405 46.2623 201.68 46.2623C202.954 46.2623 204.114 45.921 205.161 45.2384C206.23 44.533 207.072 43.6001 207.686 42.4397C208.324 41.2565 208.642 39.9709 208.642 38.5829C208.642 37.195 208.324 35.9208 207.686 34.7603C207.072 33.5999 206.23 32.6784 205.161 31.9958C204.114 31.2904 202.965 30.9377 201.714 30.9377C200.439 30.9377 199.279 31.2904 198.232 31.9958C197.186 32.7011 196.344 33.634 195.707 34.7945C195.07 35.9549 194.751 37.2518 194.751 38.6853Z" fill="#2D2D2D"/>
<path d="M222.868 31.2449C221.275 31.2904 219.875 31.7682 218.67 32.6784C217.486 33.5658 216.656 34.7945 216.178 36.3645V47.4569H214.471V29.709H216.11V34.0777C216.724 32.8263 217.543 31.8137 218.567 31.0401C219.591 30.2437 220.672 29.7887 221.81 29.6749C222.037 29.6521 222.242 29.6408 222.424 29.6408C222.606 29.6408 222.754 29.6408 222.868 29.6408V31.2449Z" fill="#2D2D2D"/>
<path d="M226.24 22.5416H227.981V43.9414C227.981 44.7605 228.152 45.3294 228.493 45.6479C228.834 45.9437 229.278 46.0916 229.824 46.0916C230.188 46.0916 230.564 46.0575 230.95 45.9892C231.337 45.921 231.678 45.83 231.974 45.7162L232.316 47.1155C231.929 47.2521 231.451 47.3772 230.882 47.491C230.313 47.6048 229.824 47.6616 229.414 47.6616C228.459 47.6616 227.685 47.3772 227.094 46.8084C226.525 46.2168 226.24 45.4318 226.24 44.4534V22.5416Z" fill="#2D2D2D"/>
<path d="M242.479 47.7982C241.228 47.7982 240.067 47.5592 238.998 47.0814C237.929 46.5808 236.996 45.9096 236.199 45.0677C235.426 44.2031 234.811 43.2133 234.356 42.0984C233.924 40.9607 233.708 39.7661 233.708 38.5147C233.708 36.8309 234.083 35.3064 234.834 33.9412C235.585 32.576 236.62 31.4838 237.94 30.6647C239.26 29.8228 240.739 29.4018 242.377 29.4018C244.061 29.4018 245.551 29.8228 246.848 30.6647C248.145 31.5066 249.169 32.6215 249.92 34.0095C250.693 35.3747 251.08 36.8764 251.08 38.5147C251.08 38.6512 251.08 38.7877 251.08 38.9242C251.08 39.0608 251.069 39.1745 251.046 39.2655H235.483C235.574 40.608 235.949 41.8253 236.609 42.9175C237.269 44.0097 238.111 44.8743 239.134 45.5114C240.181 46.1258 241.319 46.4329 242.548 46.4329C243.776 46.4329 244.937 46.1144 246.029 45.4773C247.121 44.8402 247.883 44.0211 248.316 43.0199L249.817 43.4295C249.476 44.2713 248.93 45.0222 248.179 45.6821C247.451 46.3419 246.586 46.8653 245.585 47.2521C244.607 47.6161 243.571 47.7982 242.479 47.7982ZM235.414 37.9345H249.442C249.351 36.5465 248.987 35.3178 248.35 34.2484C247.713 33.1789 246.871 32.3371 245.824 31.7227C244.8 31.1084 243.662 30.8012 242.411 30.8012C241.16 30.8012 240.022 31.1084 238.998 31.7227C237.974 32.3371 237.144 33.1789 236.506 34.2484C235.869 35.3178 235.505 36.5465 235.414 37.9345Z" fill="#2D2D2D"/>
<path d="M255.563 53.4638C255.927 53.4866 256.245 53.4866 256.518 53.4638C256.814 53.4638 257.03 53.4183 257.167 53.3273C257.372 53.259 257.576 53.077 257.781 52.7812C258.009 52.5082 258.304 51.9507 258.669 51.1088C259.033 50.2897 259.545 49.0724 260.204 47.4569L252.286 29.709H254.095L261.126 45.6479L267.645 29.709H269.386L259.658 53.0542C259.522 53.4183 259.328 53.7369 259.078 54.0099C258.851 54.3057 258.566 54.5332 258.225 54.6925C257.884 54.8745 257.474 54.9769 256.996 54.9997C256.791 55.0224 256.575 55.0338 256.348 55.0338C256.12 55.0566 255.858 55.0566 255.563 55.0338V53.4638Z" fill="#2D2D2D"/>
<path fill-rule="evenodd" clip-rule="evenodd" d="M15.093 20.4C15.093 18.7723 15.2987 17.1926 15.6855 15.6855C17.1926 15.2987 18.7723 15.093 20.4 15.093C25.2023 15.093 29.5865 16.8834 32.9214 19.8332C30.7057 22.1284 29.0234 24.9419 28.074 28.074C24.9419 29.0234 22.1284 30.7057 19.8332 32.9214C16.8834 29.5865 15.093 25.2023 15.093 20.4ZM27.6346 29.7912C25.0793 30.7047 22.7781 32.1524 20.8655 34C22.7781 35.8476 25.0793 37.2954 27.6347 38.2088C27.3498 36.8506 27.2 35.4428 27.2 34C27.2 32.5572 27.3498 31.1494 27.6346 29.7912ZM29.2855 38.7145C28.8987 37.2074 28.693 35.6277 28.693 34C28.693 32.3723 28.8987 30.7926 29.2855 29.2855C30.7926 28.8987 32.3723 28.693 34 28.693C35.6277 28.693 37.2074 28.8987 38.7145 29.2855C39.1013 30.7926 39.307 32.3723 39.307 34C39.307 35.6277 39.1013 37.2074 38.7145 38.7145C37.2074 39.1013 35.6277 39.307 34 39.307C32.3723 39.307 30.7926 39.1013 29.2855 38.7145ZM28.074 39.926C24.9419 38.9766 22.1284 37.2943 19.8332 35.0786C16.8834 38.4135 15.093 42.7977 15.093 47.6C15.093 49.2277 15.2987 50.8074 15.6855 52.3145C17.1926 52.7013 18.7723 52.907 20.4 52.907C25.2023 52.907 29.5865 51.1166 32.9214 48.1668C30.7057 45.8716 29.0234 43.0581 28.074 39.926ZM34 47.1345C32.1524 45.2219 30.7047 42.9207 29.7912 40.3654C31.1494 40.6502 32.5572 40.8 34 40.8C35.4428 40.8 36.8506 40.6502 38.2088 40.3654C37.2953 42.9207 35.8476 45.2219 34 47.1345ZM34 49.2055C30.3909 52.4358 25.6248 54.4 20.4 54.4C18.9572 54.4 17.5494 54.2502 16.1912 53.9653C18.8045 61.2759 25.7913 66.507 34 66.507C42.2087 66.507 49.1955 61.2759 51.8088 53.9654C50.4506 54.2502 49.0428 54.4 47.6 54.4C42.3752 54.4 37.6091 52.4358 34 49.2055ZM52.3145 52.3145C50.8074 52.7013 49.2277 52.907 47.6 52.907C42.7977 52.907 38.4135 51.1166 35.0786 48.1668C37.2943 45.8716 38.9766 43.0581 39.926 39.926C43.0581 38.9766 45.8716 37.2943 48.1668 35.0786C51.1166 38.4135 52.907 42.7977 52.907 47.6C52.907 49.2277 52.7013 50.8074 52.3145 52.3145ZM53.526 53.526C50.9871 61.9025 43.2056 68 34 68C24.7944 68 17.0129 61.9025 14.474 53.526C6.0975 50.9871 0 43.2056 0 34C0 24.7944 6.0975 17.0129 14.474 14.474C17.0129 6.0975 24.7944 0 34 0C43.2056 0 50.9871 6.0975 53.526 14.474C61.9025 17.0129 68 24.7944 68 34C68 43.2056 61.9025 50.9871 53.526 53.526ZM53.9654 16.1912C61.2759 18.8045 66.507 25.7913 66.507 34C66.507 42.2087 61.2759 49.1955 53.9654 51.8088C54.2502 50.4506 54.4 49.0428 54.4 47.6C54.4 42.3752 52.4358 37.6091 49.2055 34C52.4358 30.3909 54.4 25.6248 54.4 20.4C54.4 18.9572 54.2502 17.5494 53.9654 16.1912ZM51.8088 14.0347C49.1955 6.72414 42.2087 1.49297 34 1.49297C25.7913 1.49297 18.8045 6.72414 16.1912 14.0347C17.5494 13.7498 18.9572 13.6 20.4 13.6C25.6248 13.6 30.3909 15.5642 34 18.7945C37.6091 15.5642 42.3752 13.6 47.6 13.6C49.0428 13.6 50.4506 13.7498 51.8088 14.0347ZM35.0786 19.8332C38.4135 16.8834 42.7977 15.093 47.6 15.093C49.2277 15.093 50.8074 15.2987 52.3145 15.6855C52.7013 17.1926 52.907 18.7723 52.907 20.4C52.907 25.2023 51.1166 29.5865 48.1668 32.9214C45.8716 30.7057 43.0581 29.0234 39.926 28.074C38.9766 24.9419 37.2943 22.1284 35.0786 19.8332ZM34 20.8655C35.8476 22.7781 37.2954 25.0793 38.2088 27.6347C36.8506 27.3498 35.4428 27.2 34 27.2C32.5572 27.2 31.1494 27.3498 29.7912 27.6346C30.7046 25.0793 32.1524 22.7781 34 20.8655ZM13.6 20.4C13.6 18.9572 13.7498 17.5494 14.0347 16.1912C6.72414 18.8045 1.49297 25.7913 1.49297 34C1.49297 42.2087 6.72414 49.1955 14.0346 51.8088C13.7498 50.4506 13.6 49.0428 13.6 47.6C13.6 42.3752 15.5642 37.6091 18.7945 34C15.5642 30.3909 13.6 25.6248 13.6 20.4ZM40.8 34C40.8 35.4428 40.6502 36.8506 40.3654 38.2088C42.9207 37.2953 45.2219 35.8476 47.1345 34C45.2219 32.1525 42.9207 30.7047 40.3654 29.7912C40.6502 31.1494 40.8 32.5572 40.8 34Z" fill="#2D2D2D"/>
</svg>
