<svg width="265" height="43" viewBox="0 0 265 43" fill="none" xmlns="http://www.w3.org/2000/svg">
<path fill-rule="evenodd" clip-rule="evenodd" d="M10.2438 12.7529C10.2438 11.7533 10.3701 10.7831 10.6076 9.85758C11.5332 9.62003 12.5033 9.4937 13.503 9.4937C16.4523 9.4937 19.1448 10.5933 21.1928 12.4048C19.8321 13.8144 18.7989 15.5423 18.2159 17.4659C16.2923 18.0489 14.5645 19.082 13.1549 20.4428C11.3433 18.3947 10.2438 15.7022 10.2438 12.7529ZM17.9461 18.5204C16.3768 19.0814 14.9635 19.9706 13.7889 21.1052C14.9635 22.2399 16.3768 23.129 17.9461 23.69C17.7711 22.8559 17.6791 21.9913 17.6791 21.1052C17.6791 20.2191 17.7711 19.3545 17.9461 18.5204ZM18.9599 24.0006C18.7223 23.075 18.596 22.1049 18.596 21.1052C18.596 20.1055 18.7223 19.1354 18.9599 18.2098C19.8855 17.9723 20.8556 17.846 21.8553 17.846C22.8549 17.846 23.8251 17.9723 24.7506 18.2098C24.9882 19.1354 25.1145 20.1055 25.1145 21.1052C25.1145 22.1049 24.9882 23.075 24.7506 24.0006C23.8251 24.2381 22.8549 24.3644 21.8553 24.3644C20.8556 24.3644 19.8855 24.2381 18.9599 24.0006ZM18.2159 24.7446C16.2924 24.1615 14.5645 23.1284 13.1549 21.7676C11.3433 23.8157 10.2438 26.5082 10.2438 29.4575C10.2438 30.4571 10.3701 31.4273 10.6076 32.3528C11.5332 32.5904 12.5033 32.7167 13.503 32.7167C16.4523 32.7167 19.1448 31.6171 21.1928 29.8056C19.8321 28.396 18.7989 26.6681 18.2159 24.7446ZM21.8553 29.1716C20.7206 27.997 19.8315 26.5837 19.2705 25.0144C20.1046 25.1893 20.9692 25.2813 21.8553 25.2813C22.7413 25.2813 23.6059 25.1893 24.44 25.0144C23.8791 26.5837 22.9899 27.997 21.8553 29.1716ZM21.8553 30.4435C19.6388 32.4273 16.7117 33.6336 13.503 33.6336C12.6169 33.6336 11.7523 33.5416 10.9182 33.3667C12.5231 37.8563 16.814 41.069 21.8553 41.069C26.8965 41.069 31.1874 37.8563 32.7923 33.3667C31.9582 33.5416 31.0936 33.6336 30.2075 33.6336C26.9988 33.6336 24.0718 32.4273 21.8553 30.4435ZM33.1029 32.3528C32.1773 32.5904 31.2072 32.7167 30.2075 32.7167C27.2582 32.7167 24.5658 31.6171 22.5177 29.8056C23.8784 28.396 24.9116 26.6681 25.4946 24.7446C27.4182 24.1615 29.146 23.1284 30.5556 21.7676C32.3672 23.8157 33.4668 26.5082 33.4668 29.4575C33.4668 30.4571 33.3404 31.4273 33.1029 32.3528ZM33.8469 33.0968C32.2877 38.2412 27.5088 41.9859 21.8553 41.9859C16.2017 41.9859 11.4229 38.2412 9.86365 33.0968C4.71931 31.5376 0.974609 26.7587 0.974609 21.1052C0.974609 15.4517 4.71931 10.6728 9.86365 9.11359C11.4229 3.96925 16.2018 0.224548 21.8553 0.224548C27.5088 0.224548 32.2877 3.96925 33.8469 9.11359C38.9912 10.6728 42.7359 15.4517 42.7359 21.1052C42.7359 26.7587 38.9912 31.5376 33.8469 33.0968ZM34.1167 10.1682C38.6064 11.7731 41.819 16.064 41.819 21.1052C41.819 26.1464 38.6064 30.4373 34.1167 32.0422C34.2917 31.2081 34.3837 30.3435 34.3837 29.4575C34.3837 26.2487 33.1774 23.3217 31.1935 21.1052C33.1774 18.8887 34.3837 15.9617 34.3837 12.7529C34.3837 11.8669 34.2917 11.0023 34.1167 10.1682ZM32.7923 8.84375C31.1874 4.35409 26.8965 1.14144 21.8553 1.14144C16.814 1.14144 12.5231 4.35409 10.9182 8.84375C11.7523 8.6688 12.6169 8.57681 13.503 8.57681C16.7117 8.57681 19.6388 9.7831 21.8553 11.7669C24.0718 9.7831 26.9988 8.57681 30.2075 8.57681C31.0936 8.57681 31.9582 8.6688 32.7923 8.84375ZM22.5177 12.4048C24.5658 10.5933 27.2582 9.4937 30.2075 9.4937C31.2072 9.4937 32.1773 9.62003 33.1029 9.85758C33.3404 10.7831 33.4668 11.7533 33.4668 12.7529C33.4668 15.7022 32.3672 18.3947 30.5556 20.4428C29.146 19.082 27.4182 18.0489 25.4946 17.4659C24.9116 15.5423 23.8784 13.8144 22.5177 12.4048ZM21.8553 13.0388C22.9899 14.2134 23.8791 15.6267 24.44 17.196C23.6059 17.0211 22.7413 16.9291 21.8553 16.9291C20.9692 16.9291 20.1046 17.0211 19.2705 17.196C19.8315 15.6267 20.7206 14.2134 21.8553 13.0388ZM9.32687 12.7529C9.32687 11.8669 9.41886 11.0023 9.59381 10.1682C5.10415 11.7731 1.8915 16.0639 1.8915 21.1052C1.8915 26.1465 5.10415 30.4373 9.59381 32.0422C9.41886 31.2081 9.32687 30.3435 9.32687 29.4575C9.32687 26.2487 10.5332 23.3217 12.517 21.1052C10.5332 18.8887 9.32687 15.9617 9.32687 12.7529ZM26.0314 21.1052C26.0314 21.9913 25.9394 22.8559 25.7645 23.69C27.3338 23.129 28.7471 22.2399 29.9217 21.1052C28.7471 19.9706 27.3338 19.0814 25.7645 18.5204C25.9394 19.3545 26.0314 20.2191 26.0314 21.1052Z" fill="#2D2D2D"/>
<path fill-rule="evenodd" clip-rule="evenodd" d="M9.68398 8.93399C11.3069 3.75662 16.142 0 21.8552 0C27.5683 0 32.4035 3.75662 34.0264 8.93399C39.2038 10.5569 42.9604 15.392 42.9604 21.1052C42.9604 26.8183 39.2038 31.6535 34.0264 33.2764C32.4035 38.4538 27.5683 42.2104 21.8552 42.2104C16.142 42.2104 11.3069 38.4538 9.68398 33.2764C4.50662 31.6535 0.75 26.8183 0.75 21.1052C0.75 15.392 4.50662 10.5569 9.68398 8.93399ZM21.8552 0.449085C16.3033 0.449085 11.6098 4.1264 10.0785 9.17872L10.0436 9.29364L9.92871 9.32847C4.8764 10.8598 1.19908 15.5533 1.19908 21.1052C1.19908 26.657 4.8764 31.3506 9.92871 32.8819L10.0436 32.9168L10.0785 33.0317C11.6098 38.084 16.3033 41.7613 21.8552 41.7613C27.407 41.7613 32.1006 38.084 33.6319 33.0317L33.6668 32.9168L33.7817 32.8819C38.834 31.3506 42.5113 26.657 42.5113 21.1052C42.5113 15.5533 38.834 10.8598 33.7817 9.32847L33.6668 9.29364L33.6319 9.17872C32.1006 4.1264 27.407 0.449085 21.8552 0.449085ZM10.7067 8.76816C12.3425 4.192 16.7161 0.91689 21.8552 0.91689C26.9943 0.91689 31.3679 4.192 33.0037 8.76816L33.1387 9.14583L32.7461 9.0635C31.9271 8.89171 31.078 8.80135 30.2075 8.80135C27.0561 8.80135 24.1819 9.98583 22.0049 11.9342L21.8552 12.0683L21.7054 11.9342C19.5285 9.98583 16.6543 8.80135 13.5029 8.80135C12.6324 8.80135 11.7833 8.89171 10.9643 9.0635L10.5717 9.14583L10.7067 8.76816ZM11.2701 8.54711C11.9952 8.41904 12.7414 8.35226 13.5029 8.35226C16.6973 8.35226 19.6178 9.52698 21.8552 11.4677C24.0926 9.52698 27.0131 8.35226 30.2075 8.35226C30.969 8.35226 31.7152 8.41904 32.4403 8.54711C30.7671 4.33972 26.6582 1.36598 21.8552 1.36598C17.0522 1.36598 12.9433 4.33972 11.2701 8.54711ZM10.5518 9.64008C11.4954 9.39789 12.4843 9.26915 13.5029 9.26915C16.5091 9.26915 19.254 10.3902 21.3415 12.2366L21.5172 12.392L21.3543 12.5608C20.0178 13.9453 19.0032 15.6422 18.4307 17.531L18.3959 17.6459L18.281 17.6807C16.3922 18.2532 14.6953 19.2678 13.3108 20.6043L13.142 20.7672L12.9866 20.5915C11.1402 18.504 10.0192 15.7591 10.0192 12.7529C10.0192 11.7343 10.1479 10.7454 10.3901 9.80175L10.4231 9.6731L10.5518 9.64008ZM10.7927 10.0427C10.5807 10.9111 10.4682 11.8187 10.4682 12.7529C10.4682 15.5618 11.485 18.1326 13.1708 20.1183C14.5446 18.8403 16.201 17.8615 18.0362 17.2862C18.6115 15.451 19.5903 13.7946 20.8683 12.4208C18.8826 10.735 16.3118 9.71824 13.5029 9.71824C12.5687 9.71824 11.6611 9.83069 10.7927 10.0427ZM22.3688 12.2366C24.4564 10.3902 27.2013 9.26915 30.2075 9.26915C31.2261 9.26915 32.215 9.39789 33.1586 9.64008L33.2873 9.6731L33.3203 9.80175C33.5625 10.7454 33.6912 11.7343 33.6912 12.7529C33.6912 15.7591 32.5702 18.504 30.7238 20.5915L30.5684 20.7672L30.3996 20.6043C29.0151 19.2678 27.3182 18.2532 25.4294 17.6807L25.3145 17.6459L25.2797 17.531C24.7072 15.6422 23.6926 13.9453 22.3561 12.5608L22.1932 12.392L22.3688 12.2366ZM22.8421 12.4208C24.1201 13.7946 25.0989 15.451 25.6741 17.2862C27.5094 17.8615 29.1658 18.8403 30.5396 20.1183C32.2254 18.1326 33.2422 15.5618 33.2422 12.7529C33.2422 11.8187 33.1297 10.9111 32.9177 10.0427C32.0493 9.83069 31.1417 9.71824 30.2075 9.71824C27.3986 9.71824 24.8278 10.735 22.8421 12.4208ZM9.89583 9.82172L9.8135 10.2143C9.64171 11.0333 9.55135 11.8824 9.55135 12.7529C9.55135 15.9043 10.7358 18.7785 12.6842 20.9554L12.8183 21.1052L12.6842 21.2549C10.7358 23.4319 9.55135 26.3061 9.55135 29.4575C9.55135 30.328 9.64171 31.1771 9.8135 31.9961L9.89583 32.3887L9.51816 32.2537C4.94199 30.6179 1.66689 26.2443 1.66689 21.1052C1.66689 15.9661 4.942 11.5925 9.51816 9.95673L9.89583 9.82172ZM33.8146 9.82172L34.1922 9.95673C38.7684 11.5925 42.0435 15.9661 42.0435 21.1052C42.0435 26.2443 38.7684 30.6179 34.1922 32.2537L33.8146 32.3887L33.8969 31.9961C34.0687 31.1771 34.159 30.328 34.159 29.4575C34.159 26.3061 32.9746 23.4319 31.0262 21.2549L30.8921 21.1052L31.0262 20.9554C32.9746 18.7785 34.159 15.9043 34.159 12.7529C34.159 11.8824 34.0687 11.0333 33.8969 10.2143L33.8146 9.82172ZM9.29711 10.5201C5.08972 12.1933 2.11598 16.3022 2.11598 21.1052C2.11598 25.9082 5.08972 30.0171 9.29711 31.6903C9.16904 30.9652 9.10226 30.219 9.10226 29.4575C9.10226 26.2631 10.277 23.3426 12.2177 21.1052C10.277 18.8678 9.10226 15.9473 9.10226 12.7529C9.10226 11.9914 9.16904 11.2452 9.29711 10.5201ZM34.4133 10.5201C34.5414 11.2452 34.6081 11.9914 34.6081 12.7529C34.6081 15.9473 33.4334 18.8678 31.4927 21.1052C33.4334 23.3426 34.6081 26.2631 34.6081 29.4575C34.6081 30.219 34.5414 30.9652 34.4133 31.6903C38.6207 30.0171 41.5944 25.9082 41.5944 21.1052C41.5944 16.3022 38.6207 12.1933 34.4133 10.5201ZM21.8552 12.7156L22.0167 12.8828C23.1731 14.0799 24.0795 15.5205 24.6514 17.1204L24.7864 17.4981L24.3939 17.4158C23.5749 17.244 22.7257 17.1536 21.8552 17.1536C20.9847 17.1536 20.1355 17.244 19.3165 17.4158L18.924 17.4981L19.059 17.1204C19.6309 15.5205 20.5373 14.0799 21.6937 12.8828L21.8552 12.7156ZM19.6224 16.8994C20.3475 16.7713 21.0936 16.7045 21.8552 16.7045C22.6168 16.7045 23.3629 16.7713 24.088 16.8994C23.5646 15.583 22.8025 14.3873 21.8552 13.3654C20.9079 14.3873 20.1458 15.583 19.6224 16.8994ZM18.904 17.9923C19.8477 17.7501 20.8366 17.6214 21.8552 17.6214C22.8738 17.6214 23.8627 17.7501 24.8064 17.9923L24.935 18.0254L24.968 18.154C25.2102 19.0977 25.339 20.0866 25.339 21.1052C25.339 22.1238 25.2102 23.1127 24.968 24.0564L24.935 24.185L24.8064 24.218C23.8627 24.4602 22.8738 24.589 21.8552 24.589C20.8366 24.589 19.8477 24.4602 18.904 24.218L18.7754 24.185L18.7423 24.0564C18.5001 23.1127 18.3714 22.1238 18.3714 21.1052C18.3714 20.0866 18.5001 19.0977 18.7423 18.154L18.7754 18.0254L18.904 17.9923ZM19.145 18.395C18.933 19.2634 18.8205 20.171 18.8205 21.1052C18.8205 22.0394 18.9329 22.947 19.145 23.8154C20.0134 24.0274 20.921 24.1399 21.8552 24.1399C22.7894 24.1399 23.697 24.0274 24.5654 23.8154C24.7774 22.947 24.8899 22.0394 24.8899 21.1052C24.8899 20.171 24.7774 19.2634 24.5654 18.395C23.697 18.1829 22.7894 18.0705 21.8552 18.0705C20.921 18.0705 20.0134 18.1829 19.145 18.395ZM18.2481 18.174L18.1658 18.5665C17.994 19.3855 17.9036 20.2347 17.9036 21.1052C17.9036 21.9757 17.994 22.8249 18.1658 23.6439L18.2481 24.0364L17.8704 23.9014C16.2705 23.3295 14.8299 22.4231 13.6328 21.2667L13.4656 21.1052L13.6328 20.9437C14.8299 19.7873 16.2705 18.8809 17.8704 18.309L18.2481 18.174ZM25.4623 18.174L25.84 18.309C27.4399 18.8809 28.8805 19.7873 30.0776 20.9437L30.2448 21.1052L30.0776 21.2667C28.8805 22.4231 27.4399 23.3295 25.84 23.9014L25.4623 24.0364L25.5446 23.6439C25.7164 22.8249 25.8068 21.9757 25.8068 21.1052C25.8068 20.2347 25.7164 19.3855 25.5446 18.5665L25.4623 18.174ZM14.1154 21.1052C15.1373 22.0525 16.333 22.8146 17.6494 23.338C17.5213 22.6129 17.4545 21.8668 17.4545 21.1052C17.4545 20.3436 17.5213 19.5975 17.6494 18.8724C16.333 19.3958 15.1373 20.1579 14.1154 21.1052ZM26.061 18.8724C26.1891 19.5975 26.2559 20.3436 26.2559 21.1052C26.2559 21.8668 26.1891 22.6129 26.061 23.338C27.3773 22.8146 28.5731 22.0525 29.5949 21.1052C28.5731 20.1579 27.3773 19.3958 26.061 18.8724ZM13.142 21.4432L13.3108 21.6061C14.6953 22.9426 16.3922 23.9572 18.281 24.5297L18.3959 24.5645L18.4307 24.6794C19.0032 26.5682 20.0178 28.2651 21.3543 29.6496L21.5172 29.8184L21.3415 29.9738C19.254 31.8202 16.5091 32.9412 13.5029 32.9412C12.4843 32.9412 11.4954 32.8125 10.5518 32.5703L10.4231 32.5373L10.3901 32.4086C10.1479 31.465 10.0192 30.4761 10.0192 29.4575C10.0192 26.4513 11.1402 23.7064 12.9866 21.6189L13.142 21.4432ZM30.5684 21.4432L30.7238 21.6189C32.5702 23.7064 33.6912 26.4513 33.6912 29.4575C33.6912 30.4761 33.5625 31.465 33.3203 32.4086L33.2873 32.5373L33.1586 32.5703C32.215 32.8125 31.2261 32.9412 30.2075 32.9412C27.2013 32.9412 24.4564 31.8202 22.3688 29.9738L22.1932 29.8184L22.3561 29.6496C23.6926 28.2651 24.7072 26.5682 25.2797 24.6794L25.3145 24.5645L25.4294 24.5297C27.3182 23.9572 29.0151 22.9426 30.3996 21.6061L30.5684 21.4432ZM13.1708 22.0921C11.485 24.0778 10.4682 26.6486 10.4682 29.4575C10.4682 30.3917 10.5807 31.2993 10.7927 32.1677C11.6611 32.3797 12.5687 32.4922 13.5029 32.4922C16.3118 32.4922 18.8826 31.4754 20.8683 29.7896C19.5903 28.4158 18.6115 26.7594 18.0362 24.9242C16.201 24.3489 14.5446 23.3701 13.1708 22.0921ZM25.6741 24.9241C25.0989 26.7594 24.1201 28.4158 22.8421 29.7896C24.8278 31.4754 27.3986 32.4922 30.2075 32.4922C31.1417 32.4922 32.0493 32.3797 32.9177 32.1677C33.1297 31.2993 33.2422 30.3917 33.2422 29.4575C33.2422 26.6486 32.2254 24.0778 30.5396 22.0921C29.1658 23.3701 27.5094 24.3489 25.6741 24.9241ZM24.7864 24.7123L24.6514 25.09C24.0795 26.6899 23.1731 28.1305 22.0167 29.3276L21.8552 29.4948L21.6937 29.3276C20.5373 28.1305 19.6309 26.6899 19.059 25.09L18.924 24.7123L19.3165 24.7946C20.1355 24.9664 20.9847 25.0568 21.8552 25.0568C22.7257 25.0568 23.5749 24.9664 24.3939 24.7946L24.7864 24.7123ZM24.088 25.311C23.3629 25.4391 22.6168 25.5059 21.8552 25.5059C21.0936 25.5059 20.3475 25.4391 19.6224 25.311C20.1458 26.6273 20.9079 27.8231 21.8552 28.8449C22.8025 27.8231 23.5646 26.6273 24.088 25.311ZM21.8552 30.1421L22.0049 30.2762C24.1819 32.2246 27.0561 33.409 30.2075 33.409C31.078 33.409 31.9271 33.3187 32.7461 33.1469L33.1387 33.0646L33.0037 33.4422C31.3679 38.0184 26.9943 41.2935 21.8552 41.2935C16.7161 41.2935 12.3425 38.0184 10.7067 33.4422L10.5717 33.0646L10.9643 33.1469C11.7833 33.3187 12.6324 33.409 13.5029 33.409C16.6543 33.409 19.5285 32.2246 21.7054 30.2762L21.8552 30.1421ZM21.8552 30.7427C19.6178 32.6834 16.6973 33.8581 13.5029 33.8581C12.7414 33.8581 11.9952 33.7913 11.2701 33.6633C12.9433 37.8707 17.0522 40.8444 21.8552 40.8444C26.6582 40.8444 30.7671 37.8707 32.4403 33.6633C31.7152 33.7914 30.969 33.8581 30.2075 33.8581C27.0131 33.8581 24.0926 32.6834 21.8552 30.7427Z" fill="#2D2D2D"/>
<path d="M53.1606 30.9312C53.7294 31.2953 54.4007 31.6024 55.1743 31.8527C55.9707 32.103 56.8694 32.2282 57.8706 32.2282C59.1675 32.2282 60.2028 32.012 60.9765 31.5797C61.7728 31.1246 62.3644 30.4534 62.7512 29.566C63.1608 28.6786 63.4339 27.5978 63.5704 26.3236C63.7069 25.0266 63.7752 23.5363 63.7752 21.8525V9.22423H65.5158V21.5453C65.5158 23.3656 65.4248 25.0266 65.2428 26.5284C65.0835 28.0301 64.7536 29.3384 64.253 30.4534C63.7524 31.5455 62.9902 32.3874 61.9662 32.979C60.9651 33.5479 59.6226 33.8323 57.9389 33.8323C56.8467 33.8323 55.8683 33.7071 55.0036 33.4569C54.139 33.2066 53.3426 32.8311 52.6145 32.3305L53.1606 30.9312Z" fill="#2D2D2D"/>
<path d="M78.203 33.7982C76.9516 33.7982 75.7911 33.5592 74.7217 33.0814C73.675 32.6036 72.7649 31.9437 71.9913 31.1019C71.2176 30.2372 70.6147 29.2474 70.1824 28.1325C69.75 27.0176 69.5339 25.8458 69.5339 24.6171C69.5339 23.3656 69.75 22.1938 70.1824 21.1016C70.6147 19.9867 71.2176 19.0083 71.9913 18.1664C72.7876 17.3018 73.7092 16.6305 74.7558 16.1527C75.8253 15.6521 76.9743 15.4018 78.203 15.4018C79.4317 15.4018 80.5694 15.6521 81.616 16.1527C82.6627 16.6305 83.5842 17.3018 84.3806 18.1664C85.177 19.0083 85.7913 19.9867 86.2237 21.1016C86.656 22.1938 86.8721 23.3656 86.8721 24.6171C86.8721 25.8458 86.656 27.0176 86.2237 28.1325C85.7913 29.2474 85.177 30.2372 84.3806 31.1019C83.607 31.9437 82.6855 32.6036 81.616 33.0814C80.5694 33.5592 79.4317 33.7982 78.203 33.7982ZM71.2404 24.6853C71.2404 26.0733 71.5476 27.3475 72.1619 28.5079C72.799 29.6456 73.6409 30.5558 74.6876 31.2384C75.7342 31.921 76.8947 32.2623 78.1689 32.2623C79.4431 32.2623 80.6035 31.921 81.6502 31.2384C82.7196 30.533 83.5615 29.6001 84.1758 28.4397C84.8129 27.2565 85.1315 25.9709 85.1315 24.5829C85.1315 23.195 84.8129 21.9208 84.1758 20.7603C83.5615 19.5999 82.7196 18.6784 81.6502 17.9958C80.6035 17.2904 79.4545 16.9377 78.203 16.9377C76.9288 16.9377 75.7684 17.2904 74.7217 17.9958C73.675 18.7011 72.8331 19.634 72.196 20.7945C71.5589 21.9549 71.2404 23.2518 71.2404 24.6853Z" fill="#2D2D2D"/>
<path d="M96.5583 33.7982C95.1475 33.7982 93.8392 33.5592 92.6333 33.0814C91.4273 32.6036 90.3693 31.8755 89.4591 30.8971L90.2441 29.7025C91.2225 30.6354 92.2123 31.318 93.2135 31.7503C94.2146 32.1599 95.3068 32.3647 96.49 32.3647C98.0145 32.3647 99.2432 32.0461 100.176 31.409C101.132 30.7719 101.61 29.8845 101.61 28.7469C101.61 27.9732 101.382 27.3816 100.927 26.9721C100.495 26.5397 99.8575 26.1984 99.0156 25.9482C98.1965 25.6751 97.1954 25.3907 96.0122 25.0949C94.8062 24.7763 93.7823 24.4464 92.9404 24.1051C92.1213 23.7638 91.5069 23.3201 91.0974 22.774C90.6878 22.2279 90.483 21.4884 90.483 20.5555C90.483 19.3951 90.7675 18.4395 91.3363 17.6886C91.9279 16.915 92.7129 16.3461 93.6913 15.9821C94.6925 15.5953 95.796 15.4018 97.002 15.4018C98.3899 15.4018 99.5959 15.6294 100.62 16.0845C101.666 16.5395 102.463 17.1425 103.009 17.8934L102.087 18.9855C101.519 18.2574 100.779 17.7227 99.8689 17.3814C98.9588 17.0174 97.9576 16.8353 96.8654 16.8353C96.0463 16.8353 95.2727 16.9491 94.5446 17.1766C93.8164 17.4042 93.2248 17.7796 92.7698 18.3029C92.3375 18.8035 92.1213 19.4861 92.1213 20.3508C92.1213 21.0334 92.2806 21.5681 92.5991 21.9549C92.9404 22.3417 93.441 22.6603 94.1009 22.9105C94.7607 23.1381 95.5798 23.3884 96.5583 23.6614C97.9462 24.0027 99.1408 24.3554 100.142 24.7195C101.143 25.0835 101.917 25.5613 102.463 26.1529C103.009 26.7218 103.282 27.5295 103.282 28.5762C103.282 30.1917 102.668 31.4659 101.439 32.3988C100.21 33.3317 98.5833 33.7982 96.5583 33.7982Z" fill="#2D2D2D"/>
<path d="M121.798 33.4569H120.092V23.559C120.092 21.3747 119.716 19.7364 118.965 18.6442C118.215 17.5293 117.122 16.9718 115.689 16.9718C114.756 16.9718 113.823 17.2108 112.89 17.6886C111.957 18.1664 111.15 18.8263 110.467 19.6682C109.784 20.4873 109.295 21.4202 108.999 22.4668V33.4569H107.293V8.54163H108.999V19.9412C109.727 18.5532 110.74 17.4497 112.037 16.6305C113.334 15.8114 114.71 15.4018 116.167 15.4018C117.168 15.4018 118.021 15.5839 118.727 15.9479C119.432 16.312 120.012 16.8353 120.467 17.5179C120.922 18.2005 121.252 19.0197 121.457 19.9753C121.684 20.931 121.798 22.0232 121.798 23.2518V33.4569Z" fill="#2D2D2D"/>
<path d="M144.353 9.39489H146.059L149.677 18.2005L153.295 9.39489H155.001L150.735 19.5999L155.82 31.409L165.104 9.22423H167.015L156.64 33.4569H155.035L149.711 20.9992L144.353 33.4569H142.748L132.407 9.22423H134.284L143.602 31.409L148.619 19.5999L144.353 9.39489Z" fill="#2D2D2D"/>
<path d="M175.328 33.7982C174.077 33.7982 172.916 33.5592 171.847 33.0814C170.8 32.6036 169.89 31.9437 169.116 31.1019C168.343 30.2372 167.74 29.2474 167.307 28.1325C166.875 27.0176 166.659 25.8458 166.659 24.6171C166.659 23.3656 166.875 22.1938 167.307 21.1016C167.74 19.9867 168.343 19.0083 169.116 18.1664C169.913 17.3018 170.834 16.6305 171.881 16.1527C172.95 15.6521 174.099 15.4018 175.328 15.4018C176.557 15.4018 177.695 15.6521 178.741 16.1527C179.788 16.6305 180.709 17.3018 181.506 18.1664C182.302 19.0083 182.916 19.9867 183.349 21.1016C183.781 22.1938 183.997 23.3656 183.997 24.6171C183.997 25.8458 183.781 27.0176 183.349 28.1325C182.916 29.2474 182.302 30.2372 181.506 31.1019C180.732 31.9437 179.811 32.6036 178.741 33.0814C177.695 33.5592 176.557 33.7982 175.328 33.7982ZM168.366 24.6853C168.366 26.0733 168.673 27.3475 169.287 28.5079C169.924 29.6456 170.766 30.5558 171.813 31.2384C172.859 31.921 174.02 32.2623 175.294 32.2623C176.568 32.2623 177.729 31.921 178.775 31.2384C179.845 30.533 180.687 29.6001 181.301 28.4397C181.938 27.2565 182.257 25.9709 182.257 24.5829C182.257 23.195 181.938 21.9208 181.301 20.7603C180.687 19.5999 179.845 18.6784 178.775 17.9958C177.729 17.2904 176.58 16.9377 175.328 16.9377C174.054 16.9377 172.893 17.2904 171.847 17.9958C170.8 18.7011 169.958 19.634 169.321 20.7945C168.684 21.9549 168.366 23.2518 168.366 24.6853Z" fill="#2D2D2D"/>
<path d="M196.482 17.2449C194.889 17.2904 193.49 17.7682 192.284 18.6784C191.101 19.5658 190.27 20.7945 189.793 22.3645V33.4569H188.086V15.709H189.724V20.0777C190.339 18.8263 191.158 17.8137 192.182 17.0401C193.206 16.2437 194.286 15.7887 195.424 15.6749C195.652 15.6521 195.856 15.6408 196.038 15.6408C196.22 15.6408 196.368 15.6408 196.482 15.6408V17.2449Z" fill="#2D2D2D"/>
<path d="M199.855 8.54163H201.596V29.9414C201.596 30.7605 201.766 31.3294 202.107 31.6479C202.449 31.9437 202.892 32.0916 203.439 32.0916C203.803 32.0916 204.178 32.0575 204.565 31.9892C204.952 31.921 205.293 31.83 205.589 31.7162L205.93 33.1155C205.543 33.2521 205.065 33.3772 204.497 33.491C203.928 33.6048 203.439 33.6616 203.029 33.6616C202.073 33.6616 201.3 33.3772 200.708 32.8084C200.139 32.2168 199.855 31.4318 199.855 30.4534V8.54163Z" fill="#2D2D2D"/>
<path d="M216.094 33.7982C214.842 33.7982 213.682 33.5592 212.612 33.0814C211.543 32.5808 210.61 31.9096 209.814 31.0677C209.04 30.2031 208.426 29.2133 207.971 28.0984C207.538 26.9607 207.322 25.7661 207.322 24.5147C207.322 22.8309 207.698 21.3064 208.449 19.9412C209.199 18.576 210.235 17.4838 211.554 16.6647C212.874 15.8228 214.353 15.4018 215.991 15.4018C217.675 15.4018 219.165 15.8228 220.462 16.6647C221.759 17.5066 222.783 18.6215 223.534 20.0095C224.308 21.3747 224.695 22.8764 224.695 24.5147C224.695 24.6512 224.695 24.7877 224.695 24.9242C224.695 25.0608 224.683 25.1745 224.66 25.2655H209.097C209.188 26.608 209.563 27.8253 210.223 28.9175C210.883 30.0097 211.725 30.8743 212.749 31.5114C213.796 32.1258 214.933 32.4329 216.162 32.4329C217.391 32.4329 218.551 32.1144 219.643 31.4773C220.735 30.8402 221.498 30.0211 221.93 29.0199L223.432 29.4295C223.09 30.2713 222.544 31.0222 221.794 31.6821C221.065 32.3419 220.201 32.8653 219.2 33.2521C218.221 33.6161 217.186 33.7982 216.094 33.7982ZM209.029 23.9345H223.056C222.965 22.5465 222.601 21.3178 221.964 20.2484C221.327 19.1789 220.485 18.3371 219.439 17.7227C218.415 17.1084 217.277 16.8012 216.025 16.8012C214.774 16.8012 213.636 17.1084 212.612 17.7227C211.589 18.3371 210.758 19.1789 210.121 20.2484C209.484 21.3178 209.12 22.5465 209.029 23.9345Z" fill="#2D2D2D"/>
<path d="M229.177 39.4638C229.541 39.4866 229.86 39.4866 230.133 39.4638C230.429 39.4638 230.645 39.4183 230.781 39.3273C230.986 39.259 231.191 39.077 231.396 38.7812C231.623 38.5082 231.919 37.9507 232.283 37.1088C232.647 36.2897 233.159 35.0724 233.819 33.4569L225.901 15.709H227.71L234.74 31.6479L241.259 15.709H243L233.273 39.0542C233.136 39.4183 232.943 39.7369 232.693 40.0099C232.465 40.3057 232.181 40.5332 231.839 40.6925C231.498 40.8745 231.088 40.9769 230.611 40.9997C230.406 41.0224 230.19 41.0338 229.962 41.0338C229.735 41.0566 229.473 41.0566 229.177 41.0338V39.4638Z" fill="#2D2D2D"/>
<path d="M250.768 34V32.656H251.656V34H250.768Z" fill="#A5A5A5"/>
<path d="M253.278 34V27.736H254.334V34H253.278ZM253.278 26.56V25.24H254.334V26.56H253.278Z" fill="#A5A5A5"/>
<path d="M258.779 34.12C258.307 34.12 257.879 34.036 257.495 33.868C257.111 33.692 256.779 33.456 256.499 33.16C256.219 32.856 256.003 32.508 255.851 32.116C255.699 31.724 255.623 31.312 255.623 30.88C255.623 30.44 255.699 30.024 255.851 29.632C256.003 29.24 256.219 28.896 256.499 28.6C256.779 28.296 257.111 28.06 257.495 27.892C257.887 27.716 258.319 27.628 258.791 27.628C259.255 27.628 259.679 27.716 260.063 27.892C260.447 28.06 260.779 28.296 261.059 28.6C261.347 28.896 261.567 29.24 261.719 29.632C261.871 30.024 261.947 30.44 261.947 30.88C261.947 31.312 261.871 31.724 261.719 32.116C261.567 32.508 261.351 32.856 261.071 33.16C260.791 33.456 260.455 33.692 260.063 33.868C259.679 34.036 259.251 34.12 258.779 34.12ZM256.703 30.892C256.703 31.324 256.795 31.716 256.979 32.068C257.171 32.42 257.423 32.7 257.735 32.908C258.047 33.108 258.395 33.208 258.779 33.208C259.163 33.208 259.511 33.104 259.823 32.896C260.143 32.688 260.395 32.408 260.579 32.056C260.771 31.696 260.867 31.3 260.867 30.868C260.867 30.436 260.771 30.044 260.579 29.692C260.395 29.34 260.143 29.06 259.823 28.852C259.511 28.644 259.163 28.54 258.779 28.54C258.395 28.54 258.047 28.648 257.735 28.864C257.423 29.072 257.171 29.352 256.979 29.704C256.795 30.056 256.703 30.452 256.703 30.892Z" fill="#A5A5A5"/>
<path d="M263.419 31.12V25.396H264.475V31.12H263.419ZM263.419 34V32.512H264.475V34H263.419Z" fill="#A5A5A5"/>
</svg>
