<svg width="15" height="15" viewBox="0 0 15 15" fill="none" xmlns="http://www.w3.org/2000/svg">
<path fill-rule="evenodd" clip-rule="evenodd" d="M3.40502 4.65723H0.189941V14.3172H3.40502V4.65723Z" fill="white"/>
<path fill-rule="evenodd" clip-rule="evenodd" d="M3.61695 1.66856C3.59608 0.72141 2.91877 0 1.81891 0C0.719049 0 0 0.72141 0 1.66856C0 2.5961 0.697797 3.33828 1.77717 3.33828H1.79772C2.91877 3.33828 3.61695 2.5961 3.61695 1.66856Z" fill="white"/>
<path fill-rule="evenodd" clip-rule="evenodd" d="M14.9998 8.77777C14.9998 5.81064 13.4137 4.42969 11.298 4.42969C9.591 4.42969 8.82675 5.36729 8.40004 6.02503V4.65678H5.18457C5.22695 5.56322 5.18457 14.3168 5.18457 14.3168H8.40004V8.92183C8.40004 8.63312 8.4209 8.34512 8.50591 8.13842C8.73828 7.56165 9.26734 6.9645 10.1556 6.9645C11.3194 6.9645 11.7847 7.85029 11.7847 9.14841V14.3165H14.9996L14.9998 8.77777Z" fill="white"/>
</svg>
