<svg width="15" height="15" viewBox="0 0 15 15" fill="none" xmlns="http://www.w3.org/2000/svg">
<path fill-rule="evenodd" clip-rule="evenodd" d="M3.40527 4.6568H0.190186V14.3168H3.40527V4.6568Z" fill="#D3D3D3"/>
<path fill-rule="evenodd" clip-rule="evenodd" d="M3.61695 1.66856C3.59608 0.72141 2.91877 0 1.81891 0C0.719049 0 0 0.72141 0 1.66856C0 2.5961 0.697797 3.33828 1.77717 3.33828H1.79772C2.91877 3.33828 3.61695 2.5961 3.61695 1.66856Z" fill="#D3D3D3"/>
<path fill-rule="evenodd" clip-rule="evenodd" d="M15 8.77804C15 5.81091 13.4139 4.42996 11.2982 4.42996C9.59125 4.42996 8.827 5.36756 8.40028 6.02531V4.65705H5.18481C5.22719 5.5635 5.18481 14.317 5.18481 14.317H8.40028V8.9221C8.40028 8.6334 8.42115 8.3454 8.50616 8.1387C8.73852 7.56193 9.26758 6.96477 10.1558 6.96477C11.3197 6.96477 11.7849 7.85057 11.7849 9.14868V14.3168H14.9999L15 8.77804Z" fill="#D3D3D3"/>
</svg>
