<svg width="539" height="323" viewBox="0 0 539 323" fill="none" xmlns="http://www.w3.org/2000/svg">
<path fill-rule="evenodd" clip-rule="evenodd" d="M208.83 66C208.83 60.7338 209.496 55.623 210.747 50.7472C215.623 49.4957 220.734 48.8302 226 48.8302C241.537 48.8302 255.721 54.6228 266.51 64.1661C259.342 71.5919 253.899 80.6944 250.828 90.8278C240.694 93.8991 231.592 99.3419 224.166 106.51C214.623 95.7211 208.83 81.537 208.83 66ZM249.406 96.3834C241.139 99.3386 233.694 104.023 227.506 110C233.694 115.977 241.139 120.661 249.406 123.617C248.485 119.223 248 114.668 248 110C248 105.332 248.485 100.777 249.406 96.3834ZM254.747 125.253C253.496 120.377 252.83 115.266 252.83 110C252.83 104.734 253.496 99.623 254.747 94.7472C259.623 93.4957 264.734 92.8302 270 92.8302C275.266 92.8302 280.377 93.4957 285.253 94.7472C286.504 99.623 287.17 104.734 287.17 110C287.17 115.266 286.504 120.377 285.253 125.253C280.377 126.504 275.266 127.17 270 127.17C264.734 127.17 259.623 126.504 254.747 125.253ZM250.828 129.172C240.694 126.101 231.592 120.658 224.166 113.49C214.623 124.279 208.83 138.463 208.83 154C208.83 159.266 209.496 164.377 210.747 169.253C215.623 170.504 220.734 171.17 226 171.17C241.537 171.17 255.721 165.377 266.51 155.834C259.342 148.408 253.899 139.306 250.828 129.172ZM270 152.494C264.023 146.306 259.339 138.861 256.383 130.594C260.777 131.515 265.332 132 270 132C274.668 132 279.223 131.515 283.617 130.594C280.661 138.861 275.977 146.306 270 152.494ZM270 159.194C258.323 169.645 242.904 176 226 176C221.332 176 216.777 175.515 212.383 174.594C220.838 198.245 243.443 215.17 270 215.17C296.557 215.17 319.162 198.245 327.617 174.594C323.223 175.515 318.668 176 314 176C297.096 176 281.677 169.645 270 159.194ZM329.253 169.253C324.377 170.504 319.266 171.17 314 171.17C298.463 171.17 284.279 165.377 273.49 155.834C280.658 148.408 286.101 139.306 289.172 129.172C299.306 126.101 308.408 120.658 315.834 113.49C325.377 124.279 331.17 138.463 331.17 154C331.17 159.266 330.504 164.377 329.253 169.253ZM333.172 173.172C324.958 200.273 299.783 220 270 220C240.217 220 215.042 200.273 206.828 173.172C179.727 164.958 160 139.783 160 110C160 80.2171 179.727 55.0417 206.828 46.8278C215.042 19.7272 240.217 0 270 0C299.783 0 324.958 19.7272 333.172 46.8278C360.273 55.0418 380 80.2171 380 110C380 139.783 360.273 164.958 333.172 173.172ZM334.594 52.3834C358.245 60.8379 375.17 83.4425 375.17 110C375.17 136.557 358.245 159.162 334.594 167.617C335.515 163.223 336 158.668 336 154C336 137.096 329.645 121.677 319.194 110C329.645 98.3234 336 82.9038 336 66C336 61.3321 335.515 56.7773 334.594 52.3834ZM327.617 45.4062C319.162 21.7546 296.557 4.83021 270 4.83021C243.443 4.83021 220.838 21.7546 212.383 45.4062C216.777 44.4846 221.332 44 226 44C242.904 44 258.323 50.3548 270 60.8057C281.677 50.3548 297.096 44 314 44C318.668 44 323.223 44.4846 327.617 45.4062ZM273.49 64.1661C284.279 54.6228 298.463 48.8302 314 48.8302C319.266 48.8302 324.377 49.4957 329.253 50.7472C330.504 55.623 331.17 60.7338 331.17 66C331.17 81.537 325.377 95.7211 315.834 106.51C308.408 99.342 299.306 93.8991 289.172 90.8278C286.101 80.6944 280.658 71.5919 273.49 64.1661ZM270 67.5059C275.977 73.6937 280.661 81.139 283.617 89.4062C279.223 88.4846 274.668 88 270 88C265.332 88 260.777 88.4846 256.383 89.4062C259.339 81.139 264.023 73.6937 270 67.5059ZM204 66C204 61.3321 204.485 56.7773 205.406 52.3834C181.755 60.8379 164.83 83.4425 164.83 110C164.83 136.557 181.755 159.162 205.406 167.617C204.485 163.223 204 158.668 204 154C204 137.096 210.355 121.677 220.806 110C210.355 98.3234 204 82.9038 204 66ZM292 110C292 114.668 291.515 119.223 290.594 123.617C298.861 120.661 306.306 115.977 312.494 110C306.306 104.023 298.861 99.3386 290.594 96.3834C291.515 100.777 292 105.332 292 110Z" fill="#3F4651"/>
<path d="M18.2251 309.015C18.2251 311.161 17.9609 313.096 17.4327 314.82C16.9044 316.544 16.112 318.013 15.0555 319.227C14.0166 320.44 12.7135 321.373 11.1463 322.024C9.57916 322.675 7.75665 323 5.67882 323C4.72795 323 3.79468 322.938 2.87903 322.815C1.96337 322.71 1.0037 322.534 0 322.288C0.0528262 321.584 0.114457 320.88 0.184892 320.177C0.255327 319.473 0.316957 318.769 0.369784 318.066C0.42261 317.679 0.572284 317.371 0.818807 317.142C1.08294 316.896 1.45272 316.773 1.92816 316.773C2.22751 316.773 2.6149 316.834 3.09033 316.957C3.58338 317.081 4.19969 317.142 4.93925 317.142C5.94295 317.142 6.83219 317.001 7.60698 316.72C8.38176 316.421 9.02448 315.955 9.53514 315.321C10.0634 314.688 10.4596 313.87 10.7237 312.867C10.9879 311.847 11.1199 310.616 11.1199 309.173V284.422H18.2251V309.015Z" fill="#3F4651"/>
<path d="M70.7178 303.5C70.7178 306.297 70.2512 308.892 69.3179 311.284C68.4023 313.659 67.0992 315.717 65.4088 317.459C63.7183 319.2 61.6845 320.564 59.3073 321.549C56.9302 322.516 54.2889 323 51.3834 323C48.4956 323 45.8631 322.516 43.4859 321.549C41.1087 320.564 39.0661 319.2 37.358 317.459C35.6676 315.717 34.3558 313.659 33.4225 311.284C32.4892 308.892 32.0226 306.297 32.0226 303.5C32.0226 300.703 32.4892 298.117 33.4225 295.742C34.3558 293.35 35.6676 291.283 37.358 289.541C39.0661 287.8 41.1087 286.445 43.4859 285.478C45.8631 284.493 48.4956 284 51.3834 284C53.3204 284 55.1429 284.229 56.8509 284.686C58.559 285.126 60.1262 285.759 61.5525 286.586C62.9788 287.395 64.2554 288.389 65.3824 289.568C66.5269 290.729 67.4954 292.03 68.2878 293.473C69.0802 294.915 69.6789 296.481 70.0839 298.17C70.5065 299.859 70.7178 301.635 70.7178 303.5ZM63.4542 303.5C63.4542 301.407 63.1725 299.533 62.609 297.88C62.0455 296.208 61.2443 294.792 60.2054 293.631C59.1665 292.47 57.8987 291.582 56.4019 290.966C54.9228 290.35 53.2499 290.043 51.3834 290.043C49.5169 290.043 47.8353 290.35 46.3385 290.966C44.8594 291.582 43.5915 292.47 42.535 293.631C41.4961 294.792 40.6949 296.208 40.1314 297.88C39.5679 299.533 39.2862 301.407 39.2862 303.5C39.2862 305.593 39.5679 307.476 40.1314 309.147C40.6949 310.8 41.4961 312.208 42.535 313.369C43.5915 314.512 44.8594 315.392 46.3385 316.007C47.8353 316.623 49.5169 316.931 51.3834 316.931C53.2499 316.931 54.9228 316.623 56.4019 316.007C57.8987 315.392 59.1665 314.512 60.2054 313.369C61.2443 312.208 62.0455 310.8 62.609 309.147C63.1725 307.476 63.4542 305.593 63.4542 303.5Z" fill="#3F4651"/>
<path d="M105.22 291.362C105.008 291.731 104.779 292.004 104.533 292.18C104.304 292.338 104.013 292.417 103.661 292.417C103.291 292.417 102.886 292.286 102.446 292.022C102.024 291.74 101.513 291.432 100.914 291.098C100.316 290.764 99.6112 290.465 98.8012 290.201C98.0088 289.919 97.0667 289.779 95.9749 289.779C94.9889 289.779 94.126 289.902 93.3865 290.148C92.6469 290.377 92.0218 290.702 91.5111 291.124C91.0181 291.547 90.6483 292.057 90.4018 292.655C90.1553 293.235 90.032 293.878 90.032 294.581C90.032 295.478 90.2785 296.226 90.7716 296.824C91.2822 297.422 91.9513 297.932 92.779 298.355C93.6066 298.777 94.5486 299.155 95.6052 299.489C96.6617 299.823 97.7446 300.184 98.854 300.571C99.9633 300.94 101.046 301.38 102.103 301.89C103.159 302.383 104.101 303.016 104.929 303.79C105.757 304.547 106.417 305.479 106.91 306.587C107.421 307.696 107.676 309.041 107.676 310.624C107.676 312.348 107.377 313.967 106.778 315.48C106.197 316.975 105.334 318.286 104.189 319.411C103.062 320.52 101.68 321.399 100.043 322.05C98.405 322.683 96.5296 323 94.4166 323C93.2016 323 92.0042 322.877 90.8244 322.631C89.6446 322.402 88.5088 322.068 87.4171 321.628C86.343 321.188 85.3305 320.66 84.3796 320.045C83.4287 319.429 82.5835 318.743 81.8439 317.986L83.9306 314.583C84.1067 314.336 84.3356 314.134 84.6173 313.976C84.899 313.8 85.1984 313.712 85.5154 313.712C85.9556 313.712 86.431 313.896 86.9417 314.266C87.4523 314.618 88.0598 315.014 88.7642 315.453C89.4685 315.893 90.2873 316.298 91.2206 316.667C92.1715 317.019 93.3072 317.195 94.6279 317.195C96.6529 317.195 98.2201 316.72 99.3294 315.77C100.439 314.802 100.993 313.422 100.993 311.627C100.993 310.624 100.738 309.806 100.227 309.173C99.7344 308.54 99.0741 308.012 98.2465 307.59C97.4189 307.15 96.4768 306.781 95.4203 306.482C94.3637 306.183 93.2896 305.857 92.1979 305.505C91.1061 305.154 90.032 304.731 88.9755 304.239C87.9189 303.746 86.9769 303.104 86.1493 302.313C85.3217 301.521 84.6525 300.536 84.1419 299.357C83.6488 298.161 83.4023 296.692 83.4023 294.951C83.4023 293.561 83.6752 292.206 84.2211 290.887C84.7846 289.568 85.5946 288.398 86.6511 287.378C87.7076 286.357 89.0107 285.539 90.5603 284.924C92.1098 284.308 93.8883 284 95.8957 284C98.1496 284 100.227 284.352 102.129 285.055C104.031 285.759 105.651 286.744 106.989 288.011L105.22 291.362Z" fill="#3F4651"/>
<path d="M153.995 284.422V322.578H146.864V305.901H128.929V322.578H121.798V284.422H128.929V300.835H146.864V284.422H153.995Z" fill="#3F4651"/>
<path d="M185.797 316.852C187.171 316.852 188.395 316.623 189.469 316.166C190.56 315.708 191.476 315.066 192.216 314.24C192.955 313.413 193.519 312.41 193.906 311.231C194.311 310.053 194.514 308.733 194.514 307.273V284.422H201.619V307.273C201.619 309.543 201.249 311.645 200.509 313.58C199.787 315.497 198.74 317.16 197.366 318.567C196.01 319.957 194.355 321.047 192.401 321.839C190.446 322.613 188.245 323 185.797 323C183.332 323 181.122 322.613 179.168 321.839C177.213 321.047 175.549 319.957 174.176 318.567C172.82 317.16 171.772 315.497 171.032 313.58C170.31 311.645 169.949 309.543 169.949 307.273V284.422H177.055V307.247C177.055 308.707 177.248 310.026 177.636 311.205C178.041 312.384 178.613 313.395 179.352 314.24C180.11 315.066 181.025 315.708 182.099 316.166C183.191 316.623 184.424 316.852 185.797 316.852Z" fill="#3F4651"/>
<path d="M236.807 308.171L232.158 295.478C231.929 294.915 231.691 294.247 231.445 293.473C231.198 292.699 230.952 291.863 230.705 290.966C230.476 291.863 230.239 292.708 229.992 293.499C229.746 294.273 229.508 294.951 229.279 295.531L224.657 308.171H236.807ZM249.353 322.578H243.859C243.243 322.578 242.741 322.428 242.354 322.129C241.966 321.813 241.676 321.426 241.482 320.968L238.629 313.184H222.808L219.955 320.968C219.814 321.373 219.541 321.742 219.136 322.076C218.731 322.411 218.23 322.578 217.631 322.578H212.084L227.113 284.422H234.35L249.353 322.578Z" fill="#3F4651"/>
<path d="M330.703 284.422L318.844 322.578H312.425L304.079 296.507C303.85 295.874 303.639 295.1 303.445 294.185C303.339 294.625 303.234 295.039 303.128 295.426C303.022 295.813 302.908 296.173 302.785 296.507L294.359 322.578H287.914L276.081 284.422H282.024C282.64 284.422 283.151 284.572 283.556 284.871C283.979 285.152 284.26 285.539 284.401 286.032L290.899 308.857C291.04 309.419 291.172 310.035 291.295 310.704C291.436 311.355 291.577 312.041 291.718 312.762C291.858 312.023 292.008 311.328 292.167 310.677C292.343 310.026 292.528 309.419 292.721 308.857L300.223 286.032C300.363 285.627 300.636 285.258 301.041 284.924C301.464 284.589 301.975 284.422 302.573 284.422H304.66C305.276 284.422 305.778 284.572 306.166 284.871C306.553 285.17 306.843 285.557 307.037 286.032L314.512 308.857C314.882 309.947 315.216 311.205 315.516 312.63C315.745 311.24 316 309.982 316.282 308.857L322.779 286.032C322.885 285.592 323.149 285.214 323.572 284.897C324.012 284.581 324.531 284.422 325.13 284.422H330.703Z" fill="#3F4651"/>
<path d="M378.967 303.5C378.967 306.297 378.5 308.892 377.567 311.284C376.652 313.659 375.349 315.717 373.658 317.459C371.968 319.2 369.934 320.564 367.557 321.549C365.179 322.516 362.538 323 359.633 323C356.745 323 354.112 322.516 351.735 321.549C349.358 320.564 347.315 319.2 345.607 317.459C343.917 315.717 342.605 313.659 341.672 311.284C340.739 308.892 340.272 306.297 340.272 303.5C340.272 300.703 340.739 298.117 341.672 295.742C342.605 293.35 343.917 291.283 345.607 289.541C347.315 287.8 349.358 286.445 351.735 285.478C354.112 284.493 356.745 284 359.633 284C361.57 284 363.392 284.229 365.1 284.686C366.808 285.126 368.375 285.759 369.802 286.586C371.228 287.395 372.505 288.389 373.632 289.568C374.776 290.729 375.745 292.03 376.537 293.473C377.33 294.915 377.928 296.481 378.333 298.17C378.756 299.859 378.967 301.635 378.967 303.5ZM371.704 303.5C371.704 301.407 371.422 299.533 370.858 297.88C370.295 296.208 369.494 294.792 368.455 293.631C367.416 292.47 366.148 291.582 364.651 290.966C363.172 290.35 361.499 290.043 359.633 290.043C357.766 290.043 356.085 290.35 354.588 290.966C353.109 291.582 351.841 292.47 350.784 293.631C349.745 294.792 348.944 296.208 348.381 297.88C347.817 299.533 347.536 301.407 347.536 303.5C347.536 305.593 347.817 307.476 348.381 309.147C348.944 310.8 349.745 312.208 350.784 313.369C351.841 314.512 353.109 315.392 354.588 316.007C356.085 316.623 357.766 316.931 359.633 316.931C361.499 316.931 363.172 316.623 364.651 316.007C366.148 315.392 367.416 314.512 368.455 313.369C369.494 312.208 370.295 310.8 370.858 309.147C371.422 307.476 371.704 305.593 371.704 303.5Z" fill="#3F4651"/>
<path d="M404.673 302.576C406.012 302.576 407.174 302.409 408.16 302.075C409.163 301.741 409.982 301.283 410.616 300.703C411.268 300.105 411.752 299.401 412.069 298.592C412.386 297.783 412.544 296.894 412.544 295.927C412.544 293.992 411.902 292.505 410.616 291.468C409.348 290.43 407.403 289.911 404.779 289.911H400.236V302.576H404.673ZM422.951 322.578H416.533C415.318 322.578 414.437 322.103 413.891 321.153L405.862 308.936C405.562 308.478 405.228 308.153 404.858 307.959C404.506 307.766 403.978 307.669 403.273 307.669H400.236V322.578H393.131V284.422H404.779C407.367 284.422 409.586 284.695 411.435 285.24C413.302 285.768 414.825 286.516 416.004 287.483C417.202 288.451 418.082 289.612 418.646 290.966C419.209 292.303 419.491 293.781 419.491 295.399C419.491 296.683 419.297 297.897 418.91 299.041C418.54 300.184 417.994 301.222 417.272 302.154C416.568 303.087 415.688 303.905 414.631 304.608C413.592 305.312 412.403 305.866 411.065 306.271C411.523 306.535 411.946 306.851 412.333 307.221C412.72 307.572 413.073 307.995 413.39 308.487L422.951 322.578Z" fill="#3F4651"/>
<path d="M457.372 316.72V322.578H435V284.422H442.105V316.72H457.372Z" fill="#3F4651"/>
<path d="M477.5 290.069V300.65H490.865V306.112H477.5V316.905H494.457V322.578H470.368V284.422H494.457V290.069H477.5Z" fill="#3F4651"/>
<path d="M525.08 307.801V322.578H518.002V307.801L504.082 284.422H510.342C510.958 284.422 511.442 284.572 511.795 284.871C512.164 285.17 512.472 285.548 512.719 286.005L519.692 298.75C520.097 299.507 520.449 300.219 520.749 300.888C521.066 301.556 521.347 302.225 521.594 302.893C521.823 302.225 522.087 301.556 522.386 300.888C522.686 300.219 523.029 299.507 523.416 298.75L530.363 286.005C530.557 285.618 530.847 285.258 531.235 284.924C531.622 284.589 532.115 284.422 532.714 284.422H539L525.08 307.801Z" fill="#3F4651"/>
</svg>
