<svg width="15" height="12" viewBox="0 0 15 12" fill="none" xmlns="http://www.w3.org/2000/svg">
<path fill-rule="evenodd" clip-rule="evenodd" d="M7.49969 5C6.28064 5 0 1.68142 0 1.68142V1.16321C0 0.521118 0.559278 0 1.24964 0H13.7497C14.4407 0 15 0.521118 15 1.16321L14.99 1.74481C14.99 1.74481 8.77741 5 7.49969 5Z" fill="white"/>
<path fill-rule="evenodd" clip-rule="evenodd" d="M7.49969 7.05537C8.83609 7.05537 14.99 4 14.99 4L15 10.8571C15 11.488 14.4407 12 13.7497 12H1.24964C0.559902 12 0 11.488 0 10.8571L0.0099871 4C0.00936291 4 6.28064 7.05537 7.49969 7.05537Z" fill="white"/>
</svg>
