<?xml version="1.0" encoding="UTF-8"?>
<svg width="16px" height="14px" viewBox="0 0 16 14" version="1.1" xmlns="http://www.w3.org/2000/svg" xmlns:xlink="http://www.w3.org/1999/xlink">
    <!-- Generator: Sketch 61 (89581) - https://sketch.com -->
    <title>medium-dark</title>
    <desc>Created with Sketch.</desc>
    <defs>
        <polygon id="path-1" points="0 0 16 0 16 13.7959184 0 13.7959184"></polygon>
    </defs>
    <g id="Page-1" stroke="none" stroke-width="1" fill="none" fill-rule="evenodd">
        <g id="Group" transform="translate(-56.000000, -1.000000)">
            <g id="medium-dark" transform="translate(56.000000, 1.000000)">
                <mask id="mask-2" fill="white">
                    <use xlink:href="#path-1"></use>
                </mask>
                <g id="Clip-2"></g>
                <path d="M10.8408081,0.0157009908 C10.7599906,-0.0249828747 10.6938776,0.0161633075 10.6938776,0.107173643 L10.6938776,11.2985719 L15.5592083,13.7488007 C15.8016446,13.8708853 16,13.7474137 16,13.4744157 L16,2.70151308 C16,2.64783481 15.969886,2.59874669 15.9222152,2.57473925 L10.8408081,0.0157009908" id="Fill-1" fill="#CCCDC9" mask="url(#mask-2)"></path>
                <path d="M5.30612245,8.60154286 L10.5511981,0.0847950964 C10.5987849,0.00753590513 10.7041381,-0.0224855616 10.7853437,0.0180862122 L15.8518988,2.54941926 C15.9150019,2.58095497 15.9374858,2.65974486 15.9005068,2.71978779 L10.6377076,11.2653061 L5.30612245,8.60154286" id="Fill-3" fill="#9EA0A0" mask="url(#mask-2)"></path>
                <path d="M0.581376185,0.235627395 C0.257917244,0.0733017838 0.148358835,0.19341187 0.337883892,0.502553333 L5.30277113,8.6006404 L10.6122449,11.2653061 L5.33708707,2.66114315 C5.3146636,2.62454209 5.2824637,2.59497146 5.24417813,2.57574068 L0.581376185,0.235627395" id="Fill-4" fill="#797B79" mask="url(#mask-2)"></path>
                <path d="M5.30612245,13.4749364 C5.30612245,13.7475034 5.10776702,13.8707651 4.86531439,13.7488715 L0.293861108,11.4505627 C0.132226023,11.3693002 0,11.1541444 0,10.972466 L0,0.295606533 C0,0.113911683 0.132226023,0.0317426882 0.293861108,0.112988621 L5.24069794,2.60003063 C5.28077885,2.62018964 5.30612245,2.66138128 5.30612245,2.70646297 L5.30612245,13.4749364" id="Fill-5" fill="#515251" mask="url(#mask-2)"></path>
            </g>
        </g>
    </g>
</svg>