<svg xmlns="http://www.w3.org/2000/svg" viewBox="0 0 1183.01 1202.8"><defs><style>.cls-1{font-size:512.26px;letter-spacing:0.03em;}.cls-1,.cls-4,.cls-5{fill:#112339;font-family:BigCaslon-Medium, Big Caslon;font-weight:500;}.cls-2{letter-spacing:0.03em;}.cls-3{font-size:162.19px;letter-spacing:0.03em;}.cls-4{font-size:78.69px;}.cls-5{font-size:79.5px;}.cls-6{fill:#fff;}</style></defs><title>vtap-on-white</title><g id="Layer_2" data-name="Layer 2"><g id="Layer_4" data-name="Layer 4"><text class="cls-1" transform="translate(5.19 577.53)">T<tspan class="cls-2" x="391.88" y="0">AX</tspan><tspan class="cls-3"><tspan x="0" y="197.52">ASSISTANCE</tspan></tspan></text><text class="cls-4" transform="matrix(0.85, 0.53, -0.53, 0.85, 312.17, 886.56)">P</text><text class="cls-4" transform="translate(373.73 923.32) rotate(22.36)">R</text><text class="cls-4" transform="translate(449.17 952.47) rotate(11.93)">O</text><text class="cls-4" transform="matrix(1, 0.02, -0.02, 1, 532.39, 968.08)">G</text><text class="cls-4" transform="translate(618.15 967.89) rotate(-9.08)">R</text><text class="cls-4" transform="translate(697.12 953.3) rotate(-18.93)">A</text><text class="cls-4" transform="matrix(0.87, -0.5, 0.5, 0.87, 769.63, 927.36)">M</text><text class="cls-5" transform="matrix(0.18, -0.98, 0.98, 0.18, 137.46, 438.66)"> </text><text class="cls-5" transform="translate(141.19 419.05) rotate(-76.86)"> </text><text class="cls-5" transform="matrix(0.27, -0.96, 0.96, 0.27, 145.8, 399.63)"> </text><text class="cls-5" transform="matrix(0.31, -0.95, 0.95, 0.31, 151.29, 380.42)"> </text><text class="cls-5" transform="translate(157.64 361.49) rotate(-69.06)"> </text><text class="cls-5" transform="translate(164.85 342.87) rotate(-66.47)"> </text><text class="cls-5" transform="matrix(0.44, -0.9, 0.9, 0.44, 172.89, 324.59)"> </text><text class="cls-5" transform="translate(181.74 306.7) rotate(-61.29)"> </text><text class="cls-5" transform="translate(191.41 289.21) rotate(-58.71)"> </text><text class="cls-5" transform="translate(201.84 272.18) rotate(-56.13)"> </text><text class="cls-5" transform="translate(213.04 255.64) rotate(-53.56)"> </text><text class="cls-5" transform="translate(224.96 239.62) rotate(-50.99)"> </text><text class="cls-5" transform="translate(237.59 224.15) rotate(-48.42)"> </text><text class="cls-5" transform="translate(250.9 209.25) rotate(-45.86)"> </text><text class="cls-5" transform="translate(264.85 194.98) rotate(-43.3)"> </text><text class="cls-5" transform="translate(279.45 181.33) rotate(-40.73)"> </text><text class="cls-5" transform="translate(294.64 168.35) rotate(-38.17)"> </text><text class="cls-5" transform="translate(309.53 155.81) rotate(-33.33)">V</text><text class="cls-5" transform="translate(355.48 125.3) rotate(-25.48)">O</text><text class="cls-5" transform="matrix(0.95, -0.3, 0.3, 0.95, 415.47, 97.18)">L</text><text class="cls-5" transform="translate(471.08 79.54) rotate(-9.18)">U</text><text class="cls-5" transform="matrix(1, -0.02, 0.02, 1, 538.26, 69.13)">N</text><text class="cls-5" transform="translate(609.92 68.94) rotate(8.2)">T</text><text class="cls-5" transform="matrix(0.96, 0.27, -0.27, 0.96, 669.97, 77.8)">E</text><text class="cls-5" transform="translate(726.33 94.04) rotate(23.56)">E</text><text class="cls-5" transform="translate(780.07 117.48) rotate(31.4)">R</text><text class="cls-5" transform="matrix(0.8, 0.6, -0.6, 0.8, 833.4, 151.37)"> </text><text class="cls-5" transform="matrix(0.77, 0.63, -0.63, 0.77, 849.36, 163.37)"> </text><rect class="cls-6" x="760.76" y="570.83" width="18.83" height="6.67"/></g></g></svg>